<svg width="30" height="30" viewBox="0 0 30 30" fill="none" xmlns="http://www.w3.org/2000/svg">
<g clip-path="url(#clip0_21:272)">
<path d="M22.9872 4.90133C23.0002 4.90227 23.0133 4.9032 23.0266 4.9032C23.0491 4.9032 23.0717 4.90133 23.0938 4.89829C23.6845 4.91022 24.1572 5.385 24.1579 5.96713C24.1579 6.23165 24.3756 6.44612 24.644 6.44612C24.9124 6.44612 25.13 6.23165 25.13 5.96713C25.1288 5.015 24.4562 4.19127 23.5126 3.98639V3.52611C23.5126 3.26159 23.295 3.04712 23.0266 3.04712C22.7582 3.04712 22.5405 3.26159 22.5405 3.52611V4.00814C21.5428 4.27102 20.8973 5.22222 21.0319 6.23142C21.1664 7.24061 22.0393 7.99512 23.0722 7.99512C23.6719 7.99512 24.1579 8.47434 24.1579 9.06536C24.1579 9.65614 23.6719 10.1354 23.0722 10.1354C22.4724 10.1354 21.9864 9.65614 21.9864 9.06536C21.9864 8.80084 21.7688 8.58637 21.5003 8.58637C21.2319 8.58637 21.0143 8.80084 21.0143 9.06536C21.0155 9.98311 21.6411 10.786 22.5405 11.0244V11.5492C22.5405 11.8137 22.7582 12.0282 23.0266 12.0282C23.295 12.0282 23.5126 11.8137 23.5126 11.5492V11.0463C24.5391 10.8248 25.2314 9.87669 25.1182 8.84715C25.0052 7.8176 24.123 7.03737 23.0722 7.03761C22.489 7.03784 22.0099 6.58411 21.9869 6.00993C21.9641 5.43575 22.4057 4.94624 22.9872 4.90157V4.90133Z" fill="#87A900"/>
<path d="M23.0998 0.705322C20.1097 0.705322 17.558 2.62806 16.602 5.20263H4.53841C4.27118 5.20263 4.05427 5.44002 4.05237 5.70314L3.9375 22.5061H0.498863C0.230445 22.5061 0 22.6977 0 22.9627V25.095C0.00617049 27.1024 1.6105 28.7515 3.64535 28.8422V28.8527H18.652V28.8387C18.7736 28.8431 18.8236 28.8527 18.9005 28.8527H18.911C21.017 28.8495 22.7227 27.166 22.7227 25.0905V14.3095C22.8442 14.3161 22.9728 14.3196 23.0986 14.3196C26.9037 14.3196 30.0001 11.2623 30.0001 7.51221C30.0001 3.76239 26.9051 0.705322 23.0998 0.705322ZM3.83023 27.8948H3.82714C2.25485 27.8927 0.979213 26.6397 0.972094 25.09V23.4641H15.0675V25.0833C15.0682 26.0829 15.4733 27.0411 16.1929 27.7458C16.2439 27.7961 16.3073 27.8349 16.3606 27.8948H3.83023ZM21.7506 25.09C21.7508 26.6369 20.4799 27.8917 18.9105 27.8948H18.9012C17.3254 27.892 16.0474 26.6365 16.0395 25.0837V22.9627C16.0436 22.8401 15.9961 22.7215 15.9081 22.635C15.82 22.5485 15.6997 22.5019 15.5756 22.5061H4.9096L5.02114 6.16061H16.3322C16.246 6.59914 16.2014 7.04445 16.199 7.49093C16.1981 8.43511 16.3979 9.36876 16.7857 10.232H12.1948C11.9262 10.232 11.7088 10.4465 11.7088 10.711C11.7088 10.9755 11.9262 11.19 12.1948 11.19H17.313C18.3158 12.7439 19.9187 13.8272 21.7506 14.1898V25.09ZM23.0998 13.3618C19.8256 13.3618 17.1711 10.7461 17.1714 7.51923C17.1714 4.29236 19.8256 1.67663 23.1 1.67663C26.3742 1.67663 29.0285 4.2926 29.0285 7.51923C29.0249 10.7445 26.3728 13.3583 23.0998 13.3618Z" fill="#87A900"/>
<path d="M9.07497 13.4199C8.21703 13.4199 7.51929 14.0858 7.51929 14.9044C7.51929 15.723 8.21703 16.3888 9.07497 16.3888C9.93291 16.3888 10.6309 15.723 10.6309 14.9044C10.6309 14.0858 9.93291 13.4199 9.07497 13.4199ZM9.07497 15.4308C8.75292 15.4308 8.49138 15.1946 8.49138 14.9044C8.49138 14.6139 8.75315 14.3779 9.07497 14.3779C9.39679 14.3779 9.6588 14.6141 9.6588 14.9044C9.6588 15.1946 9.39679 15.4308 9.07497 15.4308Z" fill="#87A900"/>
<path d="M11.7087 14.9021C11.7087 15.1666 11.9261 15.3811 12.1948 15.3811H18.6748C18.9432 15.3811 19.1608 15.1666 19.1608 14.9021C19.1608 14.6376 18.9432 14.4231 18.6748 14.4231H12.1948C11.9261 14.4231 11.7087 14.6376 11.7087 14.9021Z" fill="#87A900"/>
<path d="M9.07497 9.2561C8.21703 9.2561 7.51929 9.9222 7.51929 10.7408C7.51929 11.5594 8.21703 12.2252 9.07497 12.2252C9.93291 12.2252 10.6309 11.5594 10.6309 10.7408C10.6309 9.9222 9.93291 9.2561 9.07497 9.2561ZM9.07497 11.2673C8.75292 11.2673 8.49138 11.031 8.49138 10.7408C8.49138 10.4505 8.75315 10.2141 9.07497 10.2141C9.39679 10.2141 9.6588 10.4503 9.6588 10.7408C9.6588 11.031 9.39679 11.2675 9.07497 11.2675V11.2673Z" fill="#87A900"/>
<path d="M9.07497 17.5833C8.21703 17.5833 7.51929 18.2491 7.51929 19.0677C7.51929 19.8863 8.21703 20.5521 9.07497 20.5521C9.93291 20.5521 10.6309 19.8863 10.6309 19.0677C10.6309 18.2491 9.93291 17.5833 9.07497 17.5833ZM9.07497 19.5942C8.75292 19.5942 8.49138 19.3582 8.49138 19.0677C8.49138 18.7774 8.75315 18.5412 9.07497 18.5412C9.39679 18.5412 9.6588 18.7774 9.6588 19.0677C9.6588 19.3579 9.39679 19.5942 9.07497 19.5942Z" fill="#87A900"/>
<path d="M18.6748 18.6143H12.1948C11.9261 18.6143 11.7087 18.8287 11.7087 19.0932C11.7087 19.3578 11.9261 19.5722 12.1948 19.5722H18.6748C18.9432 19.5722 19.1608 19.3578 19.1608 19.0932C19.1608 18.8287 18.9432 18.6143 18.6748 18.6143Z" fill="#87A900"/>
</g>
<defs>
<clipPath id="clip0_21:272">
<rect width="30" height="29.5644" fill="white"/>
</clipPath>
</defs>
</svg>
