<svg width="25" height="24" viewBox="0 0 25 24" fill="none" xmlns="http://www.w3.org/2000/svg">
<g clip-path="url(#clip0_27:445)">
<path d="M19.1394 11.7869H20.8372C21.221 11.7869 21.5333 11.479 21.5333 11.1005V9.42642C21.5333 9.04795 21.221 8.74003 20.8372 8.74003H19.1394C18.7556 8.74003 18.4433 9.04795 18.4433 9.42642V11.1005C18.4433 11.479 18.7556 11.7869 19.1394 11.7869ZM19.1564 9.44316H20.8202V11.0838H19.1564V9.44316ZM19.1394 16.24H20.8372C21.221 16.24 21.5333 15.9321 21.5333 15.5536V13.8795C21.5333 13.5011 21.221 13.1932 20.8372 13.1932H19.1394C18.7556 13.1932 18.4433 13.5011 18.4433 13.8795V15.5536C18.4433 15.9321 18.7556 16.24 19.1394 16.24ZM19.1564 13.8963H20.8202V15.5369H19.1564V13.8963ZM14.2945 11.7869H15.9922C16.3761 11.7869 16.6884 11.479 16.6884 11.1005V9.42642C16.6884 9.04795 16.3761 8.74003 15.9922 8.74003H14.2945C13.9106 8.74003 13.5984 9.04795 13.5984 9.42642V11.1005C13.5984 11.479 13.9106 11.7869 14.2945 11.7869ZM14.3114 9.44316H15.9753V11.0838H14.3114V9.44316ZM6.30237 17.4375H4.60458C4.22075 17.4375 3.90847 17.7454 3.90847 18.1239V19.798C3.90847 20.1765 4.22075 20.4844 4.60458 20.4844H6.30237C6.6862 20.4844 6.99848 20.1765 6.99848 19.798V18.1239C6.99848 17.7454 6.6862 17.4375 6.30237 17.4375ZM6.2854 19.7812H4.62155V18.1406H6.2854V19.7812ZM6.30237 8.74003H4.60458C4.22075 8.74003 3.90847 9.04795 3.90847 9.42642V11.1005C3.90847 11.479 4.22075 11.7869 4.60458 11.7869H6.30237C6.6862 11.7869 6.99848 11.479 6.99848 11.1005V9.42642C6.99848 9.04791 6.6862 8.74003 6.30237 8.74003ZM6.2854 11.0838H4.62155V9.44316H6.2854V11.0838ZM14.2945 16.1356H15.9922C16.3761 16.1356 16.6884 15.8277 16.6884 15.4493V13.7752C16.6884 13.3967 16.3761 13.0888 15.9922 13.0888H14.2945C13.9106 13.0888 13.5984 13.3967 13.5984 13.7752V15.4493C13.5984 15.8277 13.9106 16.1356 14.2945 16.1356ZM14.3114 13.7919H15.9753V15.4325H14.3114V13.7919ZM21.8874 1.60659H20.363V1.06908C20.363 0.479578 19.8767 0 19.2788 0H19.1151C18.5173 0 18.0309 0.479578 18.0309 1.06908V1.60659H7.41083V1.06908C7.41083 0.479578 6.92446 0 6.32662 0H6.1629C5.56505 0 5.07868 0.479578 5.07868 1.06908V1.60659H3.55436C2.57007 1.60659 1.76929 2.3962 1.76929 3.36675V22.2422C1.76929 23.2115 2.56898 24 3.55198 24H21.8899C22.8729 24 23.6726 23.2115 23.6726 22.2422V3.36675C23.6725 2.3962 22.8717 1.60659 21.8874 1.60659ZM18.744 1.06908C18.744 0.867281 18.9105 0.703125 19.1152 0.703125H19.2789C19.4835 0.703125 19.65 0.867281 19.65 1.06908V1.60659H18.744V1.06908ZM5.79181 1.06908C5.79181 0.867281 5.95829 0.703125 6.16294 0.703125H6.32667C6.53132 0.703125 6.6978 0.867281 6.6978 1.06908V1.60659H5.79186V1.06908H5.79181ZM22.9595 22.2422C22.9595 22.8238 22.4796 23.2969 21.8898 23.2969H3.55194C2.96212 23.2969 2.48232 22.8238 2.48232 22.2422V22.24C2.78105 22.4619 3.15237 22.5938 3.55436 22.5938H18.01C18.4868 22.5938 18.9351 22.4107 19.2723 22.0782L22.9595 18.4425V22.2422ZM18.9085 21.4425C18.9364 21.3288 18.9516 21.2101 18.9516 21.088V18.7413C18.9516 18.2988 19.3168 17.9387 19.7656 17.9387H22.1455C22.2693 17.9387 22.3897 17.9237 22.505 17.8962L18.9085 21.4425ZM22.9595 6.63066H7.76737C7.57046 6.63066 7.41083 6.78806 7.41083 6.98222C7.41083 7.17637 7.57046 7.33378 7.76737 7.33378H22.9595V16.4331C22.9595 16.8756 22.5943 17.2357 22.1455 17.2357H19.7656C18.9236 17.2357 18.2385 17.9111 18.2385 18.7413V21.0881C18.2385 21.5306 17.8734 21.8907 17.4246 21.8907H3.55436C2.96327 21.8907 2.48237 21.4165 2.48237 20.8336V7.33378H6.34121C6.53812 7.33378 6.69775 7.17637 6.69775 6.98222C6.69775 6.78806 6.53812 6.63066 6.34121 6.63066H2.48232V3.36675C2.48232 2.78391 2.96322 2.30972 3.55431 2.30972H5.07868V3.34341C5.07868 3.93291 5.56505 4.41248 6.1629 4.41248C6.3598 4.41248 6.51943 4.25508 6.51943 4.06092C6.51943 3.86677 6.3598 3.70936 6.1629 3.70936C5.95824 3.70936 5.79176 3.5452 5.79176 3.34341V2.30972H18.0309V3.34341C18.0309 3.93291 18.5173 4.41248 19.1152 4.41248C19.3121 4.41248 19.4717 4.25508 19.4717 4.06092C19.4717 3.86677 19.3121 3.70936 19.1152 3.70936C18.9105 3.70936 18.744 3.5452 18.744 3.34341V2.30972H21.8875C22.4786 2.30972 22.9595 2.78391 22.9595 3.36675V6.63066ZM6.30237 13.0888H4.60458C4.22075 13.0888 3.90847 13.3967 3.90847 13.7752V15.4493C3.90847 15.8277 4.22075 16.1356 4.60458 16.1356H6.30237C6.6862 16.1356 6.99848 15.8277 6.99848 15.4493V13.7752C6.99848 13.3966 6.6862 13.0888 6.30237 13.0888ZM6.2854 15.4325H4.62155V13.7919H6.2854V15.4325ZM9.44952 11.7869H11.1473C11.5311 11.7869 11.8434 11.479 11.8434 11.1005V9.42642C11.8434 9.04795 11.5311 8.74003 11.1473 8.74003H9.44952C9.06569 8.74003 8.75341 9.04795 8.75341 9.42642V11.1005C8.75341 11.479 9.06569 11.7869 9.44952 11.7869ZM9.46649 9.44316H11.1303V11.0838H9.46649V9.44316ZM14.311 19.7812C14.3022 19.5948 14.1461 19.4464 13.9548 19.4464C13.7579 19.4464 13.5983 19.6038 13.5983 19.798C13.5983 20.1765 13.9106 20.4844 14.2944 20.4844H15.9922C16.376 20.4844 16.6883 20.1765 16.6883 19.798V18.1239C16.6883 17.7454 16.376 17.4375 15.9922 17.4375H14.2944C13.9106 17.4375 13.5983 17.7454 13.5983 18.1239V18.6067C13.5983 18.8009 13.7579 18.9583 13.9548 18.9583C14.1517 18.9583 14.3114 18.8009 14.3114 18.6067V18.1406H15.9752V19.7812H14.311ZM9.44952 16.1356H11.1473C11.5311 16.1356 11.8434 15.8277 11.8434 15.4493V13.7752C11.8434 13.3967 11.5311 13.0888 11.1473 13.0888H9.44952C9.06569 13.0888 8.75341 13.3967 8.75341 13.7752V15.4493C8.75341 15.8277 9.06569 16.1356 9.44952 16.1356ZM9.46649 13.7919H11.1303V15.4325H9.46649V13.7919ZM9.44952 20.4844H11.1473C11.5311 20.4844 11.8434 20.1765 11.8434 19.798V18.1239C11.8434 17.7454 11.5311 17.4375 11.1473 17.4375H9.44952C9.06569 17.4375 8.75341 17.7454 8.75341 18.1239V19.798C8.75341 20.1765 9.06569 20.4844 9.44952 20.4844ZM9.46649 18.1406H11.1303V19.7812H9.46649V18.1406Z" fill="black"/>
</g>
<defs>
<clipPath id="clip0_27:445">
<rect width="24.3397" height="24" fill="white" transform="translate(0.551025)"/>
</clipPath>
</defs>
</svg>
