<svg width="70" height="70" viewBox="0 0 70 70" fill="none" xmlns="http://www.w3.org/2000/svg">
<g clip-path="url(#clip0_6:222)">
<path d="M67.1182 29.245L66.2178 28.5715C65.0963 27.732 64.6984 26.2463 65.2496 24.9586L65.6928 23.9253C66.5933 21.8227 66.4539 19.4809 65.3105 17.5006C64.1665 15.5198 62.2087 14.2279 59.9374 13.9571L58.8212 13.8236C57.43 13.6575 56.3421 12.5697 56.176 11.179L56.043 10.0623C55.7717 7.7915 54.4799 5.83312 52.4996 4.68971C50.5188 3.54577 48.177 3.40638 46.0749 4.30733L45.041 4.75006C43.7534 5.30174 42.2677 4.90334 41.4281 3.78182L40.7547 2.88194C39.3843 1.05067 37.2871 0.000724792 34.9997 0.000724792C32.7124 0.000724792 30.6151 1.05067 29.2448 2.88194L28.5708 3.78182C27.7313 4.90387 26.2461 5.30174 24.9579 4.75006L23.9245 4.30733C21.822 3.40692 19.4801 3.54577 17.4999 4.68971C15.5191 5.83312 14.2272 7.7915 13.9564 10.0623L13.8229 11.1785C13.6568 12.5697 12.5689 13.6575 11.1777 13.8236L10.0616 13.9571C7.79077 14.2279 5.8324 15.5198 4.68899 17.5006C3.54505 19.4809 3.40619 21.8227 4.30661 23.9253L4.74934 24.9586C5.30101 26.2463 4.90261 27.732 3.7811 28.5715L2.88122 29.245C1.05048 30.6153 0 32.7131 0 34.9999C0 37.2873 1.05048 39.385 2.88122 40.7554L3.78163 41.4289C4.90314 42.2684 5.30101 43.7541 4.74987 45.0417L4.30661 46.0751C3.40619 48.1777 3.54558 50.5195 4.68899 52.4998C5.83293 54.4806 7.79077 55.7725 10.0621 56.0432L11.1783 56.1768C12.5695 56.3428 13.6573 57.4307 13.8234 58.8214L13.9564 59.9381C14.2277 62.2089 15.5196 64.1673 17.4999 65.3107C19.4807 66.4541 21.8225 66.5935 23.9245 65.693L24.9585 65.2503C26.2461 64.6986 27.7318 65.097 28.5713 66.2186L29.2448 67.1184C30.6151 68.9497 32.7129 70.0002 35.0003 70.0002C37.2871 70.0002 39.3848 68.9497 40.7552 67.1184L41.4287 66.2186C42.2682 65.097 43.7534 64.6986 45.0421 65.2509L46.0755 65.693C48.1775 66.5935 50.5193 66.4546 52.5001 65.3112C54.4804 64.1673 55.7723 62.2089 56.0436 59.9381L56.1765 58.8219C56.3426 57.4307 57.4305 56.3428 58.8217 56.1768L59.9379 56.0438C62.2087 55.7725 64.1676 54.4806 65.311 52.5003C66.4544 50.5195 66.5938 48.1777 65.6928 46.0751L65.2506 45.0423C64.699 43.7541 65.0968 42.2684 66.2189 41.4289L67.1188 40.7554C68.95 39.385 70 37.2873 70 35.0005C69.9995 32.7131 68.949 30.6153 67.1182 29.245ZM65.4798 38.5663L64.5799 39.2398C62.4442 40.8377 61.6858 43.6665 62.7369 46.1189L63.1791 47.1518C63.7371 48.4543 63.6506 49.9054 62.9425 51.1326C62.2338 52.3604 61.0204 53.1604 59.6132 53.3286L58.497 53.4616C55.8481 53.7778 53.7776 55.8488 53.4614 58.4977L53.3279 59.6139C53.1597 61.0211 52.3597 62.2345 51.1324 62.9432C49.9052 63.6514 48.4541 63.7379 47.1516 63.1798L46.1182 62.7371C43.6658 61.6866 40.8375 62.4449 39.239 64.5806L38.5656 65.4805C37.7165 66.6148 36.4166 67.2658 34.9997 67.2658C33.5823 67.2658 32.2825 66.6148 31.4333 65.4805L30.7599 64.5806C29.6432 63.0879 27.9257 62.2682 26.1558 62.2682C25.3926 62.2682 24.6199 62.4209 23.8813 62.7371L22.8479 63.1798C21.5448 63.7379 20.0943 63.6514 18.8665 62.9432C17.6392 62.2345 16.8392 61.0211 16.671 59.6139L16.538 58.4977C16.2213 55.8488 14.1508 53.7783 11.5019 53.4622L10.3857 53.3286C8.97851 53.1604 7.76514 52.3604 7.05645 51.1331C6.34829 49.9059 6.26178 48.4549 6.81986 47.1523L7.26259 46.1189C8.31308 43.6671 7.55472 40.8382 5.41957 39.2398L4.51916 38.5663C3.38483 37.7172 2.73435 36.4173 2.73435 34.9999C2.73435 33.5831 3.38483 32.2832 4.51969 31.434L5.41957 30.7606C7.55525 29.1622 8.31361 26.3333 7.26259 23.8815L6.8204 22.8481C6.26231 21.5455 6.34883 20.0945 7.05698 18.8672C7.76567 17.64 8.97904 16.84 10.3863 16.6717L11.5024 16.5382C14.1513 16.2221 16.2219 14.1515 16.538 11.5026L16.6715 10.3865C16.8398 8.97923 17.6398 7.76586 18.867 7.05717C20.0943 6.34848 21.5453 6.2625 22.8479 6.82059L23.8813 7.26278C26.3331 8.31327 29.162 7.55545 30.7604 5.41977L31.4339 4.51989C32.283 3.38556 33.5829 2.73454 34.9997 2.73454C36.4166 2.73454 37.7165 3.38556 38.5656 4.51989L39.2396 5.4203C40.8375 7.55598 43.6669 8.3138 46.1182 7.26332L47.1516 6.82059C48.4541 6.2625 49.9052 6.34902 51.1324 7.05717C52.3597 7.76586 53.1602 8.97923 53.3279 10.3865L53.4614 11.5026C53.7776 14.1515 55.8486 16.2221 58.497 16.5382L59.6132 16.6717C61.0204 16.84 62.2338 17.64 62.9425 18.8672C63.6512 20.0945 63.7371 21.5455 63.1796 22.8481L62.7369 23.8815C61.6864 26.3338 62.4442 29.1622 64.5799 30.7606L65.4798 31.434C66.6146 32.2832 67.2651 33.5831 67.2651 35.0005C67.2651 36.4173 66.6146 37.7172 65.4798 38.5663Z" fill="#FFAF00"/>
<path d="M34.9997 7.94646C30.8752 7.94646 26.9146 8.85115 23.2286 10.6354C22.5487 10.9644 22.2646 11.782 22.5931 12.4614C22.922 13.1412 23.7402 13.4253 24.4195 13.0963C27.7312 11.4936 31.2907 10.6808 34.9997 10.6808C48.4092 10.6808 59.3188 21.5905 59.3188 35.0005C59.3188 48.4101 48.4092 59.3197 34.9997 59.3197C21.5896 59.3197 10.6799 48.4101 10.6799 35.0005C10.6799 29.5078 12.4663 24.3254 15.8464 20.0129C16.3121 19.4185 16.2079 18.5592 15.6135 18.0929C15.0191 17.6273 14.1598 17.7319 13.6941 18.3258C9.93385 23.1248 7.94611 28.8904 7.94611 35.0005C7.94611 49.9177 20.0825 62.0541 34.9997 62.0541C49.9168 62.0541 62.0532 49.9177 62.0532 35.0005C62.0532 20.0828 49.9168 7.94646 34.9997 7.94646Z" fill="#FFAF00"/>
<path d="M15.0102 28.0391L13.9688 29.3668C13.5025 29.9612 13.6067 30.8205 14.2006 31.2862C14.795 31.7524 15.6543 31.6488 16.12 31.0544L16.6919 30.3259V39.3681H15.7766C15.0214 39.3681 14.4094 39.9801 14.4094 40.7352C14.4094 41.4904 15.0214 42.1024 15.7766 42.1024H20.2947C21.0493 42.1024 21.6619 41.4904 21.6619 40.7352C21.6619 39.9801 21.0493 39.3681 20.2947 39.3681H19.4263V28.8829C19.4263 28.1278 18.8137 27.5157 18.0591 27.5157H16.0858C15.666 27.5157 15.2692 27.7085 15.0102 28.0391Z" fill="#FFAF00"/>
<path d="M25.9967 42.1025H26.707C28.965 42.1025 30.8016 40.2659 30.8016 38.0079V31.3808C30.8016 29.1228 28.9644 27.2856 26.707 27.2856H25.9967C23.7387 27.2856 21.902 29.1228 21.902 31.3808V38.0079C21.902 40.2659 23.7387 42.1025 25.9967 42.1025ZM24.6364 31.3808C24.6364 30.6304 25.2468 30.02 25.9967 30.02H26.707C27.4568 30.02 28.0672 30.6304 28.0672 31.3808V38.0079C28.0672 38.7577 27.4568 39.3681 26.707 39.3681H25.9967C25.2468 39.3681 24.6364 38.7577 24.6364 38.0079V31.3808Z" fill="#FFAF00"/>
<path d="M37.0148 42.1025C39.2728 42.1025 41.1094 40.2659 41.1094 38.0079V31.3808C41.1094 29.1228 39.2722 27.2856 37.0148 27.2856H36.3045C34.0465 27.2856 32.2098 29.1228 32.2098 31.3808V38.0079C32.2098 40.2659 34.0465 42.1025 36.3045 42.1025H37.0148ZM34.9442 38.0079V31.3808C34.9442 30.6304 35.5546 30.02 36.3045 30.02H37.0148C37.7646 30.02 38.375 30.6304 38.375 31.3808V38.0079C38.375 38.7577 37.7646 39.3681 37.0148 39.3681H36.3045C35.5546 39.3681 34.9442 38.7582 34.9442 38.0079Z" fill="#FFAF00"/>
<path d="M55.0701 27.1195C54.4596 26.6757 53.6046 26.8108 53.1603 27.4212L44.4733 39.3676C44.029 39.9785 44.1641 40.8336 44.7751 41.2774C45.0175 41.4536 45.299 41.5391 45.5777 41.5391C46.0002 41.5391 46.4173 41.3436 46.6848 40.9756L55.3718 29.0293C55.8161 28.4189 55.6805 27.5638 55.0701 27.1195Z" fill="#FFAF00"/>
<path d="M22.6856 21.913C23.0044 21.913 23.3248 21.8019 23.5838 21.576C26.7444 18.8161 30.7984 17.2961 34.9998 17.2961C38.9304 17.2961 42.6373 18.5768 45.7198 20.9993C46.3137 21.466 47.173 21.363 47.6397 20.7691C48.106 20.1758 48.0029 19.3159 47.4096 18.8497C43.84 16.0443 39.5488 14.5618 34.9998 14.5618C30.1372 14.5618 25.444 16.3215 21.7857 19.5162C21.2169 20.0129 21.1582 20.8764 21.6548 21.4452C21.9251 21.755 22.3043 21.913 22.6856 21.913Z" fill="#FFAF00"/>
<path d="M22.4339 50.4731C26.0025 53.278 30.2941 54.7605 34.8432 54.7605C37.9994 54.7605 41.0211 54.0492 43.8249 52.6467C44.5 52.3092 44.7734 51.4878 44.4359 50.8123C44.0978 50.1372 43.277 49.8638 42.6014 50.2013C40.1811 51.4125 37.5706 52.0262 34.8432 52.0262C30.9131 52.0262 27.2057 50.746 24.1231 48.323C23.5298 47.8568 22.67 47.9599 22.2037 48.5532C21.737 49.1471 21.8401 50.0064 22.4339 50.4731Z" fill="#FFAF00"/>
<path d="M48.4254 48.1345C48.1231 47.6816 47.557 47.4466 47.0224 47.5535C46.4552 47.6672 46.0087 48.1415 45.9334 48.7156C45.8597 49.2731 46.1492 49.8344 46.6448 50.0993C47.1426 50.3658 47.7685 50.2926 48.193 49.9204C48.7036 49.4713 48.7944 48.699 48.4254 48.1345Z" fill="#FFAF00"/>
<path d="M46.1043 26.8584C44.3302 26.8584 42.8866 28.3014 42.8866 30.0755C42.8866 31.8497 44.3302 33.2932 46.1043 33.2932C47.8779 33.2932 49.3215 31.8497 49.3215 30.0755C49.3215 28.3014 47.8779 26.8584 46.1043 26.8584ZM46.1043 30.5588C45.8378 30.5588 45.621 30.342 45.621 30.0755C45.621 29.809 45.8378 29.5922 46.1043 29.5922C46.3708 29.5922 46.5871 29.809 46.5871 30.0755C46.5871 30.342 46.3708 30.5588 46.1043 30.5588Z" fill="#FFAF00"/>
<path d="M50.475 38.4078C50.475 40.182 51.9186 41.6255 53.6922 41.6255C55.4663 41.6255 56.9099 40.182 56.9099 38.4078C56.9099 36.6337 55.4663 35.1901 53.6922 35.1901C51.9186 35.1901 50.475 36.6337 50.475 38.4078ZM54.1755 38.4078C54.1755 38.6743 53.9592 38.8911 53.6927 38.8911C53.4262 38.8911 53.2094 38.6743 53.2094 38.4078C53.2094 38.1413 53.4262 37.9245 53.6927 37.9245C53.9592 37.9245 54.1755 38.1413 54.1755 38.4078Z" fill="#FFAF00"/>
<path d="M17.7012 15.5113C17.9212 16.0395 18.4585 16.3802 19.0299 16.3535C19.5939 16.3268 20.0895 15.9412 20.2636 15.4061C20.4393 14.8656 20.2481 14.2483 19.7952 13.9038C19.3333 13.5524 18.6881 13.5321 18.2043 13.852C17.6649 14.2082 17.4577 14.9169 17.7012 15.5113Z" fill="#FFAF00"/>
</g>
<defs>
<clipPath id="clip0_6:222">
<rect width="70" height="70" fill="white"/>
</clipPath>
</defs>
</svg>
