<svg width="118" height="216" viewBox="0 0 118 216" fill="none" xmlns="http://www.w3.org/2000/svg">
<g opacity="0.2" clip-path="url(#clip0_21:344)">
<path d="M136.618 126.877C136.618 126.877 181.456 132.45 164.532 195.422C164.532 195.422 99.7208 174.082 136.618 126.877Z" fill="url(#paint0_linear_21:344)"/>
<path d="M164.532 195.422C153.548 177.229 136.618 126.877 136.618 126.877C99.7208 174.082 164.532 195.422 164.532 195.422Z" fill="url(#paint1_linear_21:344)"/>
<path d="M127.689 80.7652C127.689 80.7652 169.825 64.4525 138.091 7.48791C138.091 7.48797 80.4176 43.9531 127.689 80.7652Z" fill="url(#paint2_linear_21:344)"/>
<path d="M138.09 7.48721C131.862 27.8059 127.688 80.7641 127.688 80.7641C80.4173 43.9523 138.09 7.48721 138.09 7.48721Z" fill="url(#paint3_linear_21:344)"/>
<path d="M127.689 80.7652C127.689 80.7652 169.825 64.4525 138.091 7.48791C138.091 7.48797 80.4176 43.9531 127.689 80.7652Z" fill="url(#paint4_linear_21:344)"/>
<path d="M85.8987 121.667C85.8987 121.667 49.2235 148.934 44.9548 135.869C40.686 122.803 32.3277 135.711 32.5822 120.609C32.8366 105.507 26.3959 112.98 26.533 95.8136C26.6702 78.6474 50.2124 58.6481 68.0998 76.2507C80.4324 88.3869 112.803 105.318 85.8987 121.667Z" fill="url(#paint5_radial_21:344)"/>
<path d="M50.5934 134.789C50.2575 135.101 49.9824 135.474 49.7835 135.887L49.6927 136.01L49.7352 135.998C49.4643 136.612 49.3558 137.306 49.4635 138.019C49.5397 138.523 49.722 138.983 49.9751 139.391C49.9993 139.392 50.0239 139.393 50.0481 139.395C50.7026 139.427 51.4009 139.397 52.1381 139.309C52.1665 139.305 52.1946 139.303 52.2229 139.3C52.5949 139.253 52.976 139.193 53.366 139.119C53.3908 139.114 53.4159 139.11 53.4407 139.105C54.2373 138.951 55.0684 138.743 55.9272 138.488C55.9513 138.481 55.9757 138.473 56.0001 138.466C57.3223 138.07 58.7078 137.563 60.1273 136.974C71.8479 132.112 85.8994 121.667 85.8994 121.667C103.963 110.691 95.3076 99.4528 83.9368 89.579L50.5934 134.789ZM55.5143 134.737C55.4207 134.654 55.3221 134.576 55.2206 134.503L56.0322 134.282C55.8612 134.433 55.6842 134.586 55.5143 134.737Z" fill="url(#paint6_linear_21:344)"/>
<path d="M95.506 107.236C95.189 105.371 94.1864 103.693 92.7733 102.435C89.4593 99.4858 79.8706 91.5231 69.8211 88.5242C57.3808 84.8118 76.0799 93.1379 81.2279 99.1231C86.376 105.108 71.9763 97.0836 59.9406 99.6048C47.9049 102.126 78.8227 104.899 82.7688 109.003C86.7149 113.106 74.6536 110.609 69.5046 114.163C64.3556 117.717 80.6247 117.261 83.7743 116.177C86.924 115.093 77.0045 123.416 76.7693 125.951C76.5341 128.486 90.9353 117.432 94.2158 112.82C95.6216 110.843 95.7819 108.859 95.506 107.236Z" fill="url(#paint7_linear_21:344)"/>
<path d="M92.6383 115.816C92.6383 115.816 56.7819 122.938 56.9216 150.19C57.0614 177.442 67.992 163.29 70.1099 169.788C72.2282 176.287 72.1038 190.51 92.27 188.6C112.437 186.69 122.3 109.063 92.6383 115.816Z" fill="url(#paint8_radial_21:344)"/>
<path d="M107.667 123.52C105.352 118.819 99.5296 117.052 94.8996 119.506C88.9455 122.661 80.181 127.556 76.1894 130.96C69.8613 136.356 82.5039 130.585 86.7888 129.551C91.0737 128.518 78.8685 138.471 75.479 146.706C72.0893 154.941 78.7882 151.998 81.3305 145.822C83.8728 139.646 85.2945 145.223 83.3403 154.014C81.386 162.805 86.4716 160.684 91.1464 144.339C95.8205 127.994 103.2 125.721 101.11 131.056C99.0205 136.392 98.7365 144.737 100.25 148.37C101.091 150.384 106.764 139.198 108.521 129.47C108.872 127.531 108.629 125.524 107.777 123.747C107.741 123.671 107.704 123.595 107.667 123.52Z" fill="url(#paint9_linear_21:344)"/>
<path d="M108.923 118.48C106.422 120.905 104.764 124.013 104.025 127.347C102.462 134.406 100.374 150.518 108.912 165.839C120.271 186.224 129.196 173.443 130.191 169.654C131.185 165.865 139.1 169.665 147.025 164.936C154.95 160.208 151.498 149.307 156.454 144.101C161.41 138.896 166.359 138.902 162.906 129.422C159.452 119.942 168.367 115.215 148.574 110.928C132.079 107.354 116.952 110.692 108.923 118.48Z" fill="url(#paint10_radial_21:344)"/>
<path d="M90.2733 102.603C90.2733 102.603 62.7056 82.8726 65.2195 61.4567C66.9776 53.6278 75.7429 53.3739 76.4602 47.4746C77.1775 41.5754 89.7517 35.7847 93.8452 41.9059C97.9387 48.0271 110.189 38.2668 116.51 45.5899C122.832 52.9133 114.912 123.956 90.2733 102.603Z" fill="url(#paint11_radial_21:344)"/>
<path d="M116.436 45.5118L80.5777 94.1325C85.7747 99.3823 90.2734 102.603 90.2734 102.603C110.17 119.847 119.164 76.8372 118.559 55.7869C118.541 55.1644 118.515 54.5614 118.481 53.9796C118.48 53.9715 118.48 53.9633 118.479 53.9551C118.445 53.3815 118.402 52.8286 118.351 52.2988C118.35 52.2851 118.349 52.2711 118.347 52.2574C118.297 51.736 118.239 51.2373 118.173 50.7625C118.17 50.7431 118.167 50.7236 118.165 50.7042C118.099 50.238 118.026 49.7959 117.945 49.3789C117.94 49.3567 117.936 49.3341 117.932 49.3119C117.892 49.1088 117.85 48.9119 117.806 48.7213C117.802 48.7028 117.798 48.6855 117.794 48.667C117.753 48.4917 117.711 48.3219 117.667 48.158C117.661 48.1368 117.655 48.1147 117.65 48.0935C117.603 47.9224 117.555 47.758 117.505 47.6002C117.497 47.5741 117.488 47.5484 117.48 47.5223C117.434 47.3797 117.386 47.243 117.338 47.1116C117.331 47.0946 117.325 47.0767 117.319 47.0597C117.266 46.9196 117.211 46.7878 117.154 46.661C117.143 46.6343 117.13 46.608 117.118 46.5817C117.065 46.4664 117.011 46.3558 116.955 46.2525C116.95 46.2424 116.945 46.2312 116.939 46.2212C116.879 46.1125 116.817 46.012 116.755 45.9169C116.74 45.8944 116.725 45.872 116.709 45.8499C116.645 45.7573 116.58 45.6693 116.512 45.5914C116.512 45.5914 116.512 45.5907 116.512 45.5903C116.486 45.562 116.46 45.5389 116.436 45.5118Z" fill="url(#paint12_linear_21:344)"/>
<path d="M99.8618 105.441C97.9761 105.291 96.215 104.442 94.8361 103.146C91.6036 100.108 82.8182 91.267 78.936 81.5245C74.1302 69.4647 84.0888 87.3478 90.509 91.9424C96.9291 96.5369 87.6534 82.9088 89.0923 70.6966C90.5312 58.4843 96.0477 89.0322 100.486 92.5969C104.925 96.1615 101.363 84.3711 104.445 78.9259C107.526 73.4807 108.521 89.7262 107.722 92.9594C106.922 96.1927 114.328 85.5718 116.833 85.1117C119.337 84.6513 109.61 99.9807 105.308 103.659C103.464 105.235 101.502 105.571 99.8618 105.441Z" fill="url(#paint13_linear_21:344)"/>
<path d="M103.064 105.883C103.064 105.883 90.2375 80.1473 106.8 61.3673C113.761 54.686 115.194 59.4215 121.908 53.3234C128.621 47.2252 135.788 50.6079 140.72 56.827C145.652 63.0462 160.787 62.2389 160.004 74.6355C159.22 87.0322 153.901 88.2174 156.915 93.2797C159.929 98.342 161.124 106.073 146.254 111.121C131.385 116.17 107.51 115.681 103.064 105.883Z" fill="url(#paint14_radial_21:344)"/>
<path d="M108.064 119.203C106.921 120.71 106.382 122.59 106.431 124.48C106.546 128.915 107.295 141.356 111.982 150.739C117.782 162.353 111.066 143.017 111.912 135.168C112.757 127.318 116.752 143.312 126.823 150.368C136.894 157.424 117.769 132.972 118.064 127.287C118.359 121.601 124.787 132.108 130.901 133.433C137.015 134.758 125.555 123.202 122.61 121.646C119.665 120.09 132.521 121.633 134.531 120.071C136.541 118.509 118.627 115.563 113.019 116.325C110.616 116.652 109.058 117.892 108.064 119.203Z" fill="url(#paint15_linear_21:344)"/>
<path d="M110.686 111.247C105.465 110.797 101.705 106.015 102.309 100.809C103.086 94.1157 104.463 84.1721 106.185 79.2169C108.914 71.3605 108.129 85.2366 108.722 89.6037C109.315 93.9709 114.615 81.5349 121.057 75.3856C127.498 69.2363 126.062 75.5976 121.231 80.2096C116.4 84.8212 121.204 86.45 130.261 77.5064C136.669 71.1793 136.779 78.5535 124.425 89.4274C111.664 100.66 111.279 107.414 115.801 103.895C120.885 99.9403 124.515 95.7956 128.449 95.8872C130.631 95.938 124.964 104.712 116.539 109.881C114.86 110.912 112.902 111.415 110.937 111.267C110.853 111.261 110.77 111.254 110.686 111.247Z" fill="url(#paint16_linear_21:344)"/>
<path d="M121.353 53.812C121.295 53.8612 121.239 53.9078 121.183 53.955C121.059 54.0592 120.936 54.1602 120.816 54.2571C120.753 54.307 120.692 54.3572 120.63 54.4051C120.508 54.5016 120.387 54.5929 120.268 54.6814C120.22 54.7171 120.17 54.7557 120.123 54.7903C119.971 54.9009 119.823 55.0046 119.677 55.1039C119.604 55.1531 119.534 55.1986 119.463 55.245C119.383 55.2967 119.304 55.3485 119.226 55.397C119.148 55.4454 119.071 55.4931 118.995 55.5383C118.927 55.579 118.86 55.6176 118.793 55.6558C118.715 55.7002 118.637 55.7465 118.56 55.7877L118.56 55.7878C114.445 58.0254 112.43 55.9641 106.801 61.3676C90.2379 80.1475 103.064 105.883 103.064 105.883C104.984 110.115 108.234 115.722 115.112 116.785L153.993 64.205C153.709 64.0425 153.42 63.8849 153.126 63.7316C153.122 63.7296 153.118 63.7272 153.114 63.7252C151.561 62.9155 149.892 62.2256 148.267 61.5317C148.112 61.4655 147.957 61.3989 147.802 61.3323C147.705 61.2904 147.608 61.2488 147.512 61.2068C147.248 61.0922 146.987 60.9769 146.727 60.8605C146.686 60.8419 146.646 60.823 146.605 60.8048C146.349 60.6889 146.096 60.5723 145.847 60.4537C145.807 60.4343 145.766 60.4146 145.725 60.3952C145.476 60.2754 145.231 60.1539 144.989 60.03C144.954 60.0117 144.918 59.9935 144.882 59.9749C144.633 59.8454 144.388 59.713 144.148 59.5775C144.125 59.5645 144.101 59.5516 144.078 59.5383C143.82 59.3909 143.568 59.24 143.324 59.0842C143.315 59.0781 143.306 59.0719 143.296 59.0659C143.059 58.9136 142.829 58.7564 142.606 58.5944C142.585 58.5789 142.564 58.5629 142.543 58.547C142.331 58.3911 142.127 58.2304 141.932 58.0643C141.91 58.0455 141.887 58.0267 141.865 58.0076C141.67 57.8388 141.483 57.6639 141.304 57.4831C141.289 57.4675 141.273 57.4522 141.258 57.4362C141.068 57.2407 140.888 57.0381 140.721 56.8272C138.255 53.7176 135.23 51.3174 131.983 50.4566C131.374 50.2951 130.757 50.1878 130.135 50.1404C129.928 50.1249 129.72 50.1151 129.511 50.1129C129.094 50.108 128.674 50.1306 128.253 50.1818C126.149 50.4382 124.007 51.4183 121.909 53.3243C121.718 53.4959 121.534 53.6567 121.353 53.812Z" fill="url(#paint17_linear_21:344)"/>
<path d="M33.8179 160.186C33.8179 160.186 66.3609 133.409 85.0454 129.924C103.73 126.439 116.309 120.932 116.113 112.656C115.917 104.38 102.282 98.506 80.2801 114.585C58.2782 130.663 37.1553 151.737 31.204 157.878C25.2526 164.019 30.0032 164.726 33.8179 160.186Z" fill="url(#paint18_linear_21:344)"/>
<path d="M37.1427 160.325C36.5346 156.3 32.7782 153.529 28.7526 154.137C24.7271 154.746 21.9567 158.502 22.5649 162.527C23.173 166.553 26.9294 169.323 30.9549 168.715C34.9805 168.107 37.7509 164.351 37.1427 160.325Z" fill="url(#paint19_radial_21:344)"/>
<path d="M47.2633 155.055C46.9613 153.056 45.096 151.681 43.097 151.983C41.0979 152.285 39.7222 154.15 40.0242 156.149C40.3262 158.148 42.1916 159.524 44.1906 159.222C46.1896 158.92 47.5653 157.054 47.2633 155.055Z" fill="url(#paint20_radial_21:344)"/>
<path d="M44.1457 144.756C43.8437 142.757 41.9783 141.381 39.9793 141.683C37.9803 141.985 36.6046 143.85 36.9066 145.849C37.2086 147.848 39.0739 149.224 41.0729 148.922C43.0719 148.62 44.4477 146.755 44.1457 144.756Z" fill="url(#paint21_radial_21:344)"/>
<path d="M56.4162 147.429C56.1142 145.43 54.2488 144.055 52.2498 144.357C50.2508 144.659 48.8751 146.524 49.1771 148.523C49.4791 150.522 51.3444 151.898 53.3434 151.596C55.3424 151.294 56.7182 149.428 56.4162 147.429Z" fill="url(#paint22_radial_21:344)"/>
<path d="M56.7033 136.923C56.4013 134.924 54.5359 133.549 52.5369 133.851C50.5379 134.153 49.1622 136.018 49.4642 138.017C49.7662 140.016 51.6315 141.392 53.6305 141.09C55.6296 140.788 57.0053 138.922 56.7033 136.923Z" fill="url(#paint23_radial_21:344)"/>
</g>
<defs>
<linearGradient id="paint0_linear_21:344" x1="157.514" y1="209.711" x2="133.567" y2="99.1286" gradientUnits="userSpaceOnUse">
<stop offset="0.003" stop-color="#FFE000"/>
<stop offset="0.018" stop-color="#FCE000"/>
<stop offset="0.319" stop-color="#C5DD00"/>
<stop offset="0.464" stop-color="#AFDC00"/>
<stop offset="0.55" stop-color="#A7D200"/>
<stop offset="0.695" stop-color="#93B800"/>
<stop offset="0.879" stop-color="#718E00"/>
<stop offset="1" stop-color="#586E00"/>
</linearGradient>
<linearGradient id="paint1_linear_21:344" x1="132.482" y1="174.266" x2="166.003" y2="149.967" gradientUnits="userSpaceOnUse">
<stop stop-color="#AFDC00" stop-opacity="0"/>
<stop offset="0.472" stop-color="#84A600" stop-opacity="0.472"/>
<stop offset="1" stop-color="#586E00"/>
</linearGradient>
<linearGradient id="paint2_linear_21:344" x1="127.808" y1="-4.66763" x2="131.481" y2="108.42" gradientUnits="userSpaceOnUse">
<stop offset="0.003" stop-color="#FFE000"/>
<stop offset="0.018" stop-color="#FCE000"/>
<stop offset="0.319" stop-color="#C5DD00"/>
<stop offset="0.464" stop-color="#AFDC00"/>
<stop offset="0.55" stop-color="#A7D200"/>
<stop offset="0.695" stop-color="#93B800"/>
<stop offset="0.879" stop-color="#718E00"/>
<stop offset="1" stop-color="#586E00"/>
</linearGradient>
<linearGradient id="paint3_linear_21:344" x1="112.142" y1="35.8045" x2="150.568" y2="51.2205" gradientUnits="userSpaceOnUse">
<stop stop-color="#AFDC00" stop-opacity="0"/>
<stop offset="0.472" stop-color="#84A600" stop-opacity="0.472"/>
<stop offset="1" stop-color="#586E00"/>
</linearGradient>
<linearGradient id="paint4_linear_21:344" x1="140.629" y1="29.8686" x2="123.751" y2="58.4376" gradientUnits="userSpaceOnUse">
<stop stop-color="#AFDC00" stop-opacity="0"/>
<stop offset="0.472" stop-color="#84A600" stop-opacity="0.472"/>
<stop offset="1" stop-color="#586E00"/>
</linearGradient>
<radialGradient id="paint5_radial_21:344" cx="0" cy="0" r="1" gradientUnits="userSpaceOnUse" gradientTransform="translate(133.249 110.909) rotate(-110.672) scale(97.2316 97.2374)">
<stop stop-color="#FF5C45"/>
<stop offset="0.29" stop-color="#FF5F47"/>
<stop offset="0.498" stop-color="#FF684E"/>
<stop offset="0.681" stop-color="#FF785B"/>
<stop offset="0.847" stop-color="#FF8E6C"/>
<stop offset="0.998" stop-color="#FFA981"/>
</radialGradient>
<linearGradient id="paint6_linear_21:344" x1="66.3144" y1="79.092" x2="75.3846" y2="139.131" gradientUnits="userSpaceOnUse">
<stop stop-color="#FFA981" stop-opacity="0"/>
<stop offset="1" stop-color="#B82934"/>
</linearGradient>
<linearGradient id="paint7_linear_21:344" x1="46.5749" y1="106.32" x2="103.725" y2="107.798" gradientUnits="userSpaceOnUse">
<stop stop-color="#FFA981" stop-opacity="0"/>
<stop offset="1" stop-color="#B82934"/>
</linearGradient>
<radialGradient id="paint8_radial_21:344" cx="0" cy="0" r="1" gradientUnits="userSpaceOnUse" gradientTransform="translate(114.397 78.0487) rotate(-98.5909) scale(99.6679)">
<stop stop-color="#FF5C45"/>
<stop offset="0.29" stop-color="#FF5F47"/>
<stop offset="0.498" stop-color="#FF684E"/>
<stop offset="0.681" stop-color="#FF785B"/>
<stop offset="0.847" stop-color="#FF8E6C"/>
<stop offset="0.998" stop-color="#FFA981"/>
</radialGradient>
<linearGradient id="paint9_linear_21:344" x1="66.5819" y1="167.805" x2="115.924" y2="104.35" gradientUnits="userSpaceOnUse">
<stop stop-color="#FFA981" stop-opacity="0"/>
<stop offset="1" stop-color="#B82934"/>
</linearGradient>
<radialGradient id="paint10_radial_21:344" cx="0" cy="0" r="1" gradientUnits="userSpaceOnUse" gradientTransform="translate(54.9669 83.2529) rotate(-89.9352) scale(103.361 107.986)">
<stop stop-color="#FF5C45"/>
<stop offset="0.29" stop-color="#FF5F47"/>
<stop offset="0.498" stop-color="#FF684E"/>
<stop offset="0.681" stop-color="#FF785B"/>
<stop offset="0.847" stop-color="#FF8E6C"/>
<stop offset="0.998" stop-color="#FFA981"/>
</radialGradient>
<radialGradient id="paint11_radial_21:344" cx="0" cy="0" r="1" gradientUnits="userSpaceOnUse" gradientTransform="translate(109.036 160.256) rotate(-110.764) scale(92.6303 106.977)">
<stop stop-color="#FF5C45"/>
<stop offset="0.29" stop-color="#FF5F47"/>
<stop offset="0.498" stop-color="#FF684E"/>
<stop offset="0.681" stop-color="#FF785B"/>
<stop offset="0.847" stop-color="#FF8E6C"/>
<stop offset="0.998" stop-color="#FFA981"/>
</radialGradient>
<linearGradient id="paint12_linear_21:344" x1="109.901" y1="63.8331" x2="87.2353" y2="114.057" gradientUnits="userSpaceOnUse">
<stop stop-color="#FFA981" stop-opacity="0"/>
<stop offset="1" stop-color="#B82934"/>
</linearGradient>
<linearGradient id="paint13_linear_21:344" x1="94.5912" y1="56.7856" x2="101.155" y2="113.583" gradientUnits="userSpaceOnUse">
<stop stop-color="#FFA981" stop-opacity="0"/>
<stop offset="1" stop-color="#B82934"/>
</linearGradient>
<radialGradient id="paint14_radial_21:344" cx="0" cy="0" r="1" gradientUnits="userSpaceOnUse" gradientTransform="translate(49.8332 122.604) rotate(-112.024) scale(93.5917 93.5916)">
<stop stop-color="#FF5C45"/>
<stop offset="0.29" stop-color="#FF5F47"/>
<stop offset="0.498" stop-color="#FF684E"/>
<stop offset="0.681" stop-color="#FF785B"/>
<stop offset="0.847" stop-color="#FF8E6C"/>
<stop offset="0.998" stop-color="#FFA981"/>
</radialGradient>
<linearGradient id="paint15_linear_21:344" x1="140.871" y1="155.538" x2="102.861" y2="112.832" gradientUnits="userSpaceOnUse">
<stop stop-color="#FFA981" stop-opacity="0"/>
<stop offset="1" stop-color="#B82934"/>
</linearGradient>
<linearGradient id="paint16_linear_21:344" x1="136.372" y1="56.4172" x2="95.1329" y2="125.509" gradientUnits="userSpaceOnUse">
<stop stop-color="#FFA981" stop-opacity="0"/>
<stop offset="1" stop-color="#B82934"/>
</linearGradient>
<linearGradient id="paint17_linear_21:344" x1="146.787" y1="40.4558" x2="74.1638" y2="138.93" gradientUnits="userSpaceOnUse">
<stop stop-color="#FFA981" stop-opacity="0"/>
<stop offset="1" stop-color="#B82934"/>
</linearGradient>
<linearGradient id="paint18_linear_21:344" x1="76.6636" y1="142.674" x2="63.5354" y2="124.377" gradientUnits="userSpaceOnUse">
<stop stop-color="#FEFFB3"/>
<stop offset="1" stop-color="#FFCD77"/>
</linearGradient>
<radialGradient id="paint19_radial_21:344" cx="0" cy="0" r="1" gradientUnits="userSpaceOnUse" gradientTransform="translate(27.0223 163.729) rotate(-98.5909) scale(16.1679)">
<stop stop-color="#FEFFB3"/>
<stop offset="0.193" stop-color="#FEF296"/>
<stop offset="0.609" stop-color="#FFD14B"/>
<stop offset="1" stop-color="#FFAF00"/>
</radialGradient>
<radialGradient id="paint20_radial_21:344" cx="0" cy="0" r="1" gradientUnits="userSpaceOnUse" gradientTransform="translate(42.2395 156.745) rotate(-98.5909) scale(8.02812)">
<stop stop-color="#FEFFB3"/>
<stop offset="0.193" stop-color="#FEF296"/>
<stop offset="0.609" stop-color="#FFD14B"/>
<stop offset="1" stop-color="#FFAF00"/>
</radialGradient>
<radialGradient id="paint21_radial_21:344" cx="0" cy="0" r="1" gradientUnits="userSpaceOnUse" gradientTransform="translate(39.1229 146.446) rotate(-98.5909) scale(8.02811)">
<stop stop-color="#FEFFB3"/>
<stop offset="0.193" stop-color="#FEF296"/>
<stop offset="0.609" stop-color="#FFD14B"/>
<stop offset="1" stop-color="#FFAF00"/>
</radialGradient>
<radialGradient id="paint22_radial_21:344" cx="0" cy="0" r="1" gradientUnits="userSpaceOnUse" gradientTransform="translate(51.3922 149.119) rotate(-98.5909) scale(8.02813)">
<stop stop-color="#FEFFB3"/>
<stop offset="0.193" stop-color="#FEF296"/>
<stop offset="0.609" stop-color="#FFD14B"/>
<stop offset="1" stop-color="#FFAF00"/>
</radialGradient>
<radialGradient id="paint23_radial_21:344" cx="0" cy="0" r="1" gradientUnits="userSpaceOnUse" gradientTransform="translate(51.6792 138.613) rotate(-98.5909) scale(8.02812)">
<stop stop-color="#FEFFB3"/>
<stop offset="0.193" stop-color="#FEF296"/>
<stop offset="0.609" stop-color="#FFD14B"/>
<stop offset="1" stop-color="#FFAF00"/>
</radialGradient>
<clipPath id="clip0_21:344">
<rect width="189.777" height="189.777" fill="white" transform="translate(28.3486 215.996) rotate(-98.5909)"/>
</clipPath>
</defs>
</svg>
