<svg width="66" height="65" viewBox="0 0 66 65" fill="none" xmlns="http://www.w3.org/2000/svg">
<g clip-path="url(#clip0_9:380)">
<path d="M64.7897 22.1701C64.7897 22.1701 86.0538 24.8131 78.0277 54.6774C78.0277 54.6774 47.2918 44.5567 64.7897 22.1701Z" fill="url(#paint0_linear_9:380)"/>
<path d="M78.0277 54.6774C72.8189 46.0493 64.7897 22.1701 64.7897 22.1701C47.2918 44.5567 78.0277 54.6774 78.0277 54.6774Z" fill="url(#paint1_linear_9:380)"/>
<path d="M60.3146 10.2437C60.3146 10.2437 71.4763 -8.04751 95.3893 11.5604C95.3896 11.5602 73.514 35.4056 60.3146 10.2437Z" fill="url(#paint2_linear_9:380)"/>
<path d="M95.3897 11.5604C85.3824 12.7558 60.3151 10.2437 60.3151 10.2437C73.5142 35.4056 95.3897 11.5604 95.3897 11.5604Z" fill="url(#paint3_linear_9:380)"/>
<path d="M60.5554 0.302199C60.5554 0.302199 80.5381 -7.43393 65.4884 -34.4489C65.4882 -34.4489 38.1374 -17.1556 60.5554 0.302199Z" fill="url(#paint4_linear_9:380)"/>
<path d="M65.4881 -34.4492C62.5345 -24.8132 60.555 0.301725 60.555 0.301725C38.1372 -17.1559 65.4881 -34.4492 65.4881 -34.4492Z" fill="url(#paint5_linear_9:380)"/>
<path d="M64.7896 22.1705C60.3014 27.9125 58.9874 32.8473 59.5133 37.0119L70.3668 39.8097L77.0654 30.7268C76.6841 30.0629 76.2757 29.4483 75.847 28.8818C71.389 22.9914 64.7896 22.1705 64.7896 22.1705Z" fill="url(#paint6_linear_9:380)"/>
<path d="M60.3146 10.2436C65.1639 19.4877 71.184 22.1171 76.8605 21.7447L88.1172 6.48158C69.2059 -4.32506 60.3146 10.2436 60.3146 10.2436Z" fill="url(#paint7_linear_9:380)"/>
<path d="M60.5554 0.302199C60.5554 0.302199 80.5381 -7.43393 65.4884 -34.4489C65.4882 -34.4489 38.1374 -17.1556 60.5554 0.302199Z" fill="url(#paint8_linear_9:380)"/>
<path d="M40.7367 19.6994C40.7367 19.6994 23.3438 32.6307 21.3194 26.4346C19.295 20.2384 15.3311 26.3601 15.4518 19.1981C15.5725 12.0361 12.518 15.5798 12.5831 7.43888C12.6481 -0.702065 23.8128 -10.1865 32.2957 -1.83867C38.1444 3.91681 53.496 11.9465 40.7367 19.6994Z" fill="url(#paint9_radial_9:380)"/>
<path d="M23.9934 25.9225C23.8341 26.0706 23.7037 26.2473 23.6094 26.4433L23.5663 26.5017L23.5864 26.4962C23.458 26.7872 23.4065 27.1162 23.4576 27.4543C23.4937 27.6934 23.5802 27.9115 23.7002 28.1049C23.7117 28.1055 23.7234 28.1062 23.7348 28.1068C24.0452 28.1221 24.3764 28.1078 24.726 28.0662C24.7394 28.0645 24.7528 28.0634 24.7662 28.0617C24.9426 28.0397 25.1234 28.0111 25.3083 27.9763C25.3201 27.974 25.332 27.9716 25.3437 27.9693C25.7215 27.8966 26.1157 27.7979 26.523 27.6767C26.5344 27.6734 26.5459 27.6698 26.5575 27.6665C27.1846 27.4784 27.8416 27.2384 28.5148 26.9591C34.0732 24.6532 40.737 19.6995 40.737 19.6995C49.3033 14.4945 45.1988 9.16474 39.8063 4.48221L23.9934 25.9225ZM26.3271 25.8979C26.2828 25.8584 26.236 25.8217 26.1879 25.7869L26.5727 25.682C26.4916 25.7536 26.4077 25.8266 26.3271 25.8979Z" fill="url(#paint10_linear_9:380)"/>
<path d="M45.2929 12.8559C45.1426 11.9714 44.6671 11.1754 43.997 10.579C42.4253 9.18038 37.878 5.40412 33.1121 3.98193C27.2124 2.22134 36.0803 6.16992 38.5217 9.00834C40.9631 11.8468 34.1342 8.04115 28.4264 9.23678C22.7185 10.4324 37.381 11.7476 39.2524 13.6936C41.1238 15.6397 35.4039 14.4555 32.962 16.141C30.5201 17.8265 38.2356 17.6102 39.7293 17.096C41.223 16.582 36.5188 20.5291 36.4072 21.7312C36.2957 22.9334 43.1253 17.6914 44.6811 15.5039C45.3478 14.5664 45.4238 13.6255 45.2929 12.8559Z" fill="url(#paint11_linear_9:380)"/>
<path d="M43.9329 16.9248C43.9329 16.9248 26.9282 20.3021 26.9945 33.2262C27.0608 46.1502 32.2445 39.439 33.2489 42.5206C34.2535 45.6024 34.1945 52.3478 43.7582 51.4418C53.322 50.536 57.9998 13.722 43.9329 16.9248Z" fill="url(#paint12_radial_9:380)"/>
<path d="M51.0602 20.5786C49.9622 18.3491 47.2012 17.5113 45.0054 18.6749C42.1817 20.1713 38.0252 22.4924 36.1322 24.1067C33.1312 26.666 39.1269 23.929 41.1589 23.4389C43.191 22.9488 37.4028 27.6687 35.7953 31.5742C34.1878 35.4795 37.3647 34.084 38.5704 31.155C39.776 28.226 40.4503 30.871 39.5235 35.04C38.5967 39.2089 41.0085 38.2033 43.2255 30.4517C45.4421 22.7002 48.942 21.6222 47.9508 24.1525C46.9597 26.6828 46.825 30.6406 47.543 32.3632C47.9414 33.3186 50.632 28.0135 51.4654 23.4004C51.6315 22.4807 51.5164 21.5291 51.1126 20.6863C51.0952 20.6501 51.0777 20.6142 51.0602 20.5786Z" fill="url(#paint13_linear_9:380)"/>
<path d="M51.6555 18.1883C50.4698 19.3383 49.6833 20.8123 49.3331 22.393C48.5915 25.7411 47.6016 33.3818 51.6503 40.6475C57.0376 50.3153 61.2699 44.254 61.7417 42.457C62.2135 40.6601 65.967 42.4621 69.7252 40.2196C73.4835 37.9772 71.8467 32.8075 74.1969 30.3389C76.5471 27.8702 78.8944 27.873 77.2566 23.3773C75.6189 18.8817 79.8468 16.6399 70.46 14.6065C62.6375 12.9119 55.4634 14.4947 51.6555 18.1883Z" fill="url(#paint14_radial_9:380)"/>
<path d="M42.8114 10.6589C42.8114 10.6589 29.7376 1.30183 30.9298 -8.85451C31.7636 -12.5673 35.9205 -12.6877 36.2606 -15.4854C36.6008 -18.283 42.564 -21.0292 44.5053 -18.1263C46.4466 -15.2233 52.2563 -19.8521 55.2541 -16.3792C58.2522 -12.9061 54.4959 20.7852 42.8114 10.6589Z" fill="url(#paint15_radial_9:380)"/>
<path d="M55.2187 -16.4163L38.2133 6.64166C40.6779 9.13133 42.8114 10.6588 42.8114 10.6588C52.2471 18.8364 56.5125 -1.56048 56.2258 -11.5434C56.2173 -11.8386 56.2049 -12.1246 56.1884 -12.4005C56.1882 -12.4044 56.188 -12.4082 56.1877 -12.4121C56.1715 -12.6841 56.1513 -12.9463 56.1272 -13.1976C56.1266 -13.2041 56.1259 -13.2108 56.1253 -13.2172C56.1014 -13.4645 56.0737 -13.701 56.0425 -13.9262C56.0413 -13.9354 56.0399 -13.9446 56.0387 -13.9539C56.0075 -14.1749 55.9728 -14.3846 55.9343 -14.5823C55.9322 -14.5929 55.9302 -14.6036 55.9281 -14.6141C55.9091 -14.7104 55.8893 -14.8038 55.8687 -14.8942C55.8667 -14.903 55.8648 -14.9112 55.8627 -14.92C55.8434 -15.0031 55.8234 -15.0836 55.8024 -15.1613C55.7997 -15.1714 55.797 -15.1819 55.7944 -15.192C55.7724 -15.2731 55.7496 -15.351 55.7258 -15.4259C55.7218 -15.4382 55.7179 -15.4504 55.7139 -15.4628C55.6921 -15.5304 55.6695 -15.5953 55.6464 -15.6576C55.6434 -15.6657 55.6405 -15.6741 55.6375 -15.6822C55.6124 -15.7486 55.5862 -15.8112 55.5595 -15.8713C55.5539 -15.884 55.5481 -15.8964 55.5423 -15.9089C55.5171 -15.9636 55.4913 -16.016 55.465 -16.065C55.4625 -16.0698 55.4599 -16.0751 55.4573 -16.0799C55.429 -16.1314 55.3996 -16.1791 55.3699 -16.2242C55.3627 -16.2348 55.3556 -16.2455 55.3484 -16.2559C55.3179 -16.2999 55.2871 -16.3416 55.255 -16.3785C55.255 -16.3785 55.2548 -16.3789 55.2547 -16.379C55.2426 -16.3925 55.2303 -16.4034 55.2187 -16.4163Z" fill="url(#paint16_linear_9:380)"/>
<path d="M47.3586 12.0045C46.4643 11.9334 45.6291 11.5309 44.9752 10.9164C43.4422 9.47567 39.2758 5.28275 37.4347 0.662458C35.1556 -5.0568 39.8784 3.42409 42.9231 5.60302C45.9678 7.78195 41.5689 1.31895 42.2512 -4.4726C42.9336 -10.2642 45.5498 4.22293 47.6547 5.91343C49.7599 7.60391 48.0707 2.01241 49.5319 -0.569916C50.9932 -3.15224 51.465 4.55203 51.086 6.08536C50.707 7.61869 54.2192 2.58183 55.4069 2.36365C56.5945 2.1453 51.9814 9.41512 49.9413 11.1594C49.067 11.9068 48.1364 12.0662 47.3586 12.0045Z" fill="url(#paint17_linear_9:380)"/>
<path d="M48.8771 12.214C48.8771 12.214 42.7944 0.00918129 50.6492 -8.89703C53.9503 -12.0656 54.6299 -9.81983 57.8137 -12.7118C60.9976 -15.6038 64.3964 -13.9996 66.7352 -11.0502C69.0741 -8.10085 76.2519 -8.48372 75.8804 -2.60471C75.5086 3.27432 72.9863 3.83636 74.4156 6.23711C75.845 8.63786 76.4117 12.3042 69.3599 14.6984C62.3082 17.0926 50.9858 16.8606 48.8771 12.214Z" fill="url(#paint18_radial_9:380)"/>
<path d="M51.2484 18.5311C50.7062 19.2457 50.4505 20.1372 50.4738 21.0339C50.5284 23.1369 50.884 29.0371 53.1064 33.4868C55.8572 38.9947 52.6723 29.8249 53.0731 26.1023C53.4739 22.3798 55.3685 29.9646 60.1446 33.3108C64.9206 36.6569 55.8512 25.0608 55.9909 22.3647C56.1305 19.6684 59.1789 24.6512 62.0786 25.2796C64.9783 25.908 59.5433 20.4275 58.1465 19.6897C56.7499 18.9517 62.8467 19.6836 63.8002 18.9428C64.7535 18.202 56.2578 16.8051 53.5981 17.1664C52.4585 17.3213 51.72 17.9095 51.2484 18.5311Z" fill="url(#paint19_linear_9:380)"/>
<path d="M52.492 14.758C50.0161 14.5447 48.2326 12.2765 48.5192 9.80802C48.8878 6.63361 49.5409 1.91793 50.3572 -0.43204C51.6517 -4.15788 51.2793 2.42275 51.5606 4.49384C51.8418 6.56493 54.3552 0.667235 57.4101 -2.249C60.465 -5.16524 59.784 -2.14844 57.4928 0.0387472C55.2015 2.22577 57.4798 2.99819 61.7752 -1.24322C64.8141 -4.2438 64.8662 -0.746643 59.0074 4.41023C52.9555 9.73708 52.773 12.9403 54.9176 11.2716C57.3288 9.39586 59.05 7.43026 60.9159 7.4737C61.9508 7.49779 59.2632 11.6586 55.2678 14.1104C54.4712 14.5991 53.5428 14.8376 52.6108 14.7674C52.5712 14.7645 52.5316 14.7613 52.492 14.758Z" fill="url(#paint20_linear_9:380)"/>
<path d="M57.5503 -12.48C57.5231 -12.4566 57.4966 -12.4345 57.4697 -12.4121C57.4109 -12.3627 57.3527 -12.3148 57.2957 -12.2689C57.2662 -12.2452 57.2369 -12.2214 57.2078 -12.1987C57.1496 -12.1529 57.0923 -12.1096 57.0359 -12.0677C57.0131 -12.0507 56.9897 -12.0324 56.9671 -12.016C56.8952 -11.9636 56.8249 -11.9144 56.7556 -11.8673C56.7213 -11.844 56.6877 -11.8224 56.6541 -11.8004C56.6164 -11.7758 56.5786 -11.7513 56.5418 -11.7283C56.5049 -11.7053 56.4683 -11.6827 56.4322 -11.6613C56.4 -11.642 56.3681 -11.6237 56.3365 -11.6056C56.2995 -11.5845 56.2623 -11.5625 56.2259 -11.543L56.2258 -11.543C54.2745 -10.4818 53.3188 -11.4593 50.6492 -8.89678C42.7945 0.00943334 48.8772 12.2143 48.8772 12.2143C49.7878 14.221 51.3291 16.8803 54.5906 17.3843L73.0297 -7.55117C72.8951 -7.62824 72.7579 -7.70299 72.6187 -7.77565C72.6168 -7.77661 72.6149 -7.77774 72.613 -7.77869C71.8765 -8.16272 71.0851 -8.4899 70.3143 -8.81897C70.2408 -8.85035 70.1674 -8.88192 70.094 -8.9135C70.048 -8.93339 70.002 -8.95311 69.9563 -8.97305C69.8311 -9.02738 69.7071 -9.08208 69.5841 -9.13727C69.5646 -9.14607 69.5453 -9.15506 69.5261 -9.1637C69.4049 -9.21864 69.2849 -9.27393 69.1667 -9.33021C69.1475 -9.3394 69.1281 -9.34874 69.109 -9.35794C68.9907 -9.41473 68.8743 -9.47234 68.7598 -9.53114C68.743 -9.5398 68.7259 -9.54841 68.7091 -9.55725C68.5908 -9.61868 68.4745 -9.68145 68.3608 -9.7457C68.3499 -9.75188 68.3387 -9.75801 68.3276 -9.76433C68.2054 -9.83422 68.086 -9.90578 67.9703 -9.97967C67.9657 -9.98255 67.9616 -9.98547 67.957 -9.98834C67.8444 -10.0606 67.7354 -10.1351 67.6298 -10.212C67.6196 -10.2193 67.6097 -10.2269 67.5995 -10.2344C67.4993 -10.3083 67.4026 -10.3846 67.3098 -10.4634C67.2994 -10.4723 67.2888 -10.4812 67.2784 -10.4903C67.1856 -10.5703 67.097 -10.6532 67.0124 -10.739C67.005 -10.7464 66.9975 -10.7536 66.9903 -10.7612C66.9002 -10.8539 66.815 -10.95 66.7355 -11.05C65.5661 -12.5247 64.1317 -13.663 62.5917 -14.0712C62.3029 -14.1478 62.0104 -14.1987 61.7153 -14.2212C61.617 -14.2285 61.5183 -14.2332 61.4193 -14.2342C61.2216 -14.2365 61.0225 -14.2258 60.823 -14.2016C59.825 -14.0799 58.809 -13.6152 57.8141 -12.7113C57.7238 -12.6299 57.6365 -12.5536 57.5503 -12.48Z" fill="url(#paint21_linear_9:380)"/>
<path d="M16.0378 37.9669C16.0378 37.9669 31.471 25.2683 40.332 23.6156C49.193 21.9628 55.1583 19.3512 55.0655 15.4262C54.9728 11.5015 48.5063 8.71574 38.0721 16.3409C27.6379 23.966 17.6205 33.96 14.7982 36.8724C11.9758 39.7848 14.2287 40.12 16.0378 37.9669Z" fill="url(#paint22_linear_9:380)"/>
<path d="M17.6146 38.0328C17.3262 36.1237 15.5448 34.8099 13.6357 35.0983C11.7266 35.3867 10.4128 37.1681 10.7012 39.0772C10.9896 40.9863 12.771 42.3001 14.6801 42.0117C16.5892 41.7233 17.903 39.9419 17.6146 38.0328Z" fill="url(#paint23_radial_9:380)"/>
<path d="M22.4142 35.5339C22.271 34.5858 21.3864 33.9334 20.4384 34.0766C19.4904 34.2199 18.8379 35.1045 18.9812 36.0525C19.1244 37.0005 20.009 37.6529 20.957 37.5097C21.905 37.3665 22.5574 36.4819 22.4142 35.5339Z" fill="url(#paint24_radial_9:380)"/>
<path d="M20.9357 30.6491C20.7925 29.7011 19.9079 29.0487 18.9599 29.1919C18.0118 29.3351 17.3594 30.2197 17.5026 31.1677C17.6459 32.1158 18.5305 32.7682 19.4785 32.625C20.4265 32.4817 21.0789 31.5971 20.9357 30.6491Z" fill="url(#paint25_radial_9:380)"/>
<path d="M26.7548 31.9172C26.6116 30.9691 25.727 30.3167 24.7789 30.4599C23.8309 30.6032 23.1785 31.4878 23.3217 32.4358C23.465 33.3838 24.3496 34.0362 25.2976 33.893C26.2456 33.7498 26.898 32.8652 26.7548 31.9172Z" fill="url(#paint26_radial_9:380)"/>
<path d="M26.891 26.9347C26.7478 25.9867 25.8632 25.3343 24.9152 25.4775C23.9672 25.6207 23.3147 26.5054 23.458 27.4534C23.6012 28.4014 24.4858 29.0538 25.4338 28.9106C26.3818 28.7674 27.0343 27.8828 26.891 26.9347Z" fill="url(#paint27_radial_9:380)"/>
</g>
<defs>
<linearGradient id="paint0_linear_9:380" x1="74.6997" y1="61.4535" x2="63.3432" y2="9.0109" gradientUnits="userSpaceOnUse">
<stop offset="0.003" stop-color="#FFE000"/>
<stop offset="0.018" stop-color="#FCE000"/>
<stop offset="0.319" stop-color="#C5DD00"/>
<stop offset="0.464" stop-color="#AFDC00"/>
<stop offset="0.55" stop-color="#A7D200"/>
<stop offset="0.695" stop-color="#93B800"/>
<stop offset="0.879" stop-color="#718E00"/>
<stop offset="1" stop-color="#586E00"/>
</linearGradient>
<linearGradient id="paint1_linear_9:380" x1="62.8285" y1="44.6439" x2="78.7258" y2="33.1207" gradientUnits="userSpaceOnUse">
<stop stop-color="#AFDC00" stop-opacity="0"/>
<stop offset="0.472" stop-color="#84A600" stop-opacity="0.472"/>
<stop offset="1" stop-color="#586E00"/>
</linearGradient>
<linearGradient id="paint2_linear_9:380" x1="100.193" y1="17.3852" x2="47.7242" y2="6.14427" gradientUnits="userSpaceOnUse">
<stop offset="0.003" stop-color="#FFE000"/>
<stop offset="0.018" stop-color="#FCE000"/>
<stop offset="0.319" stop-color="#C5DD00"/>
<stop offset="0.464" stop-color="#AFDC00"/>
<stop offset="0.55" stop-color="#A7D200"/>
<stop offset="0.695" stop-color="#93B800"/>
<stop offset="0.879" stop-color="#718E00"/>
<stop offset="1" stop-color="#586E00"/>
</linearGradient>
<linearGradient id="paint3_linear_9:380" x1="79.9889" y1="21.2857" x2="76.0323" y2="2.05377" gradientUnits="userSpaceOnUse">
<stop stop-color="#AFDC00" stop-opacity="0"/>
<stop offset="0.472" stop-color="#84A600" stop-opacity="0.472"/>
<stop offset="1" stop-color="#586E00"/>
</linearGradient>
<linearGradient id="paint4_linear_9:380" x1="60.612" y1="-40.2136" x2="62.3535" y2="13.4174" gradientUnits="userSpaceOnUse">
<stop offset="0.003" stop-color="#FFE000"/>
<stop offset="0.018" stop-color="#FCE000"/>
<stop offset="0.319" stop-color="#C5DD00"/>
<stop offset="0.464" stop-color="#AFDC00"/>
<stop offset="0.55" stop-color="#A7D200"/>
<stop offset="0.695" stop-color="#93B800"/>
<stop offset="0.879" stop-color="#718E00"/>
<stop offset="1" stop-color="#586E00"/>
</linearGradient>
<linearGradient id="paint5_linear_9:380" x1="53.1824" y1="-21.0199" x2="71.4057" y2="-13.7091" gradientUnits="userSpaceOnUse">
<stop stop-color="#AFDC00" stop-opacity="0"/>
<stop offset="0.472" stop-color="#84A600" stop-opacity="0.472"/>
<stop offset="1" stop-color="#586E00"/>
</linearGradient>
<linearGradient id="paint6_linear_9:380" x1="84.8765" y1="19.7185" x2="61.6915" y2="34.8269" gradientUnits="userSpaceOnUse">
<stop stop-color="#AFDC00" stop-opacity="0"/>
<stop offset="0.472" stop-color="#84A600" stop-opacity="0.472"/>
<stop offset="1" stop-color="#586E00"/>
</linearGradient>
<linearGradient id="paint7_linear_9:380" x1="83.6712" y1="-4.47468" x2="65.7983" y2="19.7595" gradientUnits="userSpaceOnUse">
<stop stop-color="#AFDC00" stop-opacity="0"/>
<stop offset="0.472" stop-color="#84A600" stop-opacity="0.472"/>
<stop offset="1" stop-color="#586E00"/>
</linearGradient>
<linearGradient id="paint8_linear_9:380" x1="66.6923" y1="-23.8351" x2="58.6877" y2="-10.2865" gradientUnits="userSpaceOnUse">
<stop stop-color="#AFDC00" stop-opacity="0"/>
<stop offset="0.472" stop-color="#84A600" stop-opacity="0.472"/>
<stop offset="1" stop-color="#586E00"/>
</linearGradient>
<radialGradient id="paint9_radial_9:380" cx="0" cy="0" r="1" gradientUnits="userSpaceOnUse" gradientTransform="translate(63.1923 14.5976) rotate(-110.672) scale(46.1113 46.114)">
<stop stop-color="#FF5C45"/>
<stop offset="0.29" stop-color="#FF5F47"/>
<stop offset="0.498" stop-color="#FF684E"/>
<stop offset="0.681" stop-color="#FF785B"/>
<stop offset="0.847" stop-color="#FF8E6C"/>
<stop offset="0.998" stop-color="#FFA981"/>
</radialGradient>
<linearGradient id="paint10_linear_9:380" x1="31.449" y1="-0.49116" x2="35.7504" y2="27.9817" gradientUnits="userSpaceOnUse">
<stop stop-color="#FFA981" stop-opacity="0"/>
<stop offset="1" stop-color="#B82934"/>
</linearGradient>
<linearGradient id="paint11_linear_9:380" x1="22.0878" y1="12.4214" x2="49.1907" y2="13.1224" gradientUnits="userSpaceOnUse">
<stop stop-color="#FFA981" stop-opacity="0"/>
<stop offset="1" stop-color="#B82934"/>
</linearGradient>
<radialGradient id="paint12_radial_9:380" cx="0" cy="0" r="1" gradientUnits="userSpaceOnUse" gradientTransform="translate(54.2516 -0.986083) rotate(-98.5909) scale(47.2666)">
<stop stop-color="#FF5C45"/>
<stop offset="0.29" stop-color="#FF5F47"/>
<stop offset="0.498" stop-color="#FF684E"/>
<stop offset="0.681" stop-color="#FF785B"/>
<stop offset="0.847" stop-color="#FF8E6C"/>
<stop offset="0.998" stop-color="#FFA981"/>
</radialGradient>
<linearGradient id="paint13_linear_9:380" x1="31.576" y1="41.5804" x2="54.9762" y2="11.4873" gradientUnits="userSpaceOnUse">
<stop stop-color="#FFA981" stop-opacity="0"/>
<stop offset="1" stop-color="#B82934"/>
</linearGradient>
<radialGradient id="paint14_radial_9:380" cx="0" cy="0" r="1" gradientUnits="userSpaceOnUse" gradientTransform="translate(26.0676 1.48197) rotate(-89.9352) scale(49.0181 51.2112)">
<stop stop-color="#FF5C45"/>
<stop offset="0.29" stop-color="#FF5F47"/>
<stop offset="0.498" stop-color="#FF684E"/>
<stop offset="0.681" stop-color="#FF785B"/>
<stop offset="0.847" stop-color="#FF8E6C"/>
<stop offset="0.998" stop-color="#FFA981"/>
</radialGradient>
<radialGradient id="paint15_radial_9:380" cx="0" cy="0" r="1" gradientUnits="userSpaceOnUse" gradientTransform="translate(51.7095 38.0004) rotate(-110.764) scale(43.9291 50.733)">
<stop stop-color="#FF5C45"/>
<stop offset="0.29" stop-color="#FF5F47"/>
<stop offset="0.498" stop-color="#FF684E"/>
<stop offset="0.681" stop-color="#FF785B"/>
<stop offset="0.847" stop-color="#FF8E6C"/>
<stop offset="0.998" stop-color="#FFA981"/>
</radialGradient>
<linearGradient id="paint16_linear_9:380" x1="52.1195" y1="-7.72756" x2="41.3706" y2="16.0907" gradientUnits="userSpaceOnUse">
<stop stop-color="#FFA981" stop-opacity="0"/>
<stop offset="1" stop-color="#B82934"/>
</linearGradient>
<linearGradient id="paint17_linear_9:380" x1="44.859" y1="-11.0698" x2="47.9717" y2="15.8657" gradientUnits="userSpaceOnUse">
<stop stop-color="#FFA981" stop-opacity="0"/>
<stop offset="1" stop-color="#B82934"/>
</linearGradient>
<radialGradient id="paint18_radial_9:380" cx="0" cy="0" r="1" gradientUnits="userSpaceOnUse" gradientTransform="translate(23.633 20.1437) rotate(-112.024) scale(44.3851)">
<stop stop-color="#FF5C45"/>
<stop offset="0.29" stop-color="#FF5F47"/>
<stop offset="0.498" stop-color="#FF684E"/>
<stop offset="0.681" stop-color="#FF785B"/>
<stop offset="0.847" stop-color="#FF8E6C"/>
<stop offset="0.998" stop-color="#FFA981"/>
</radialGradient>
<linearGradient id="paint19_linear_9:380" x1="66.8069" y1="35.7628" x2="48.7808" y2="15.5099" gradientUnits="userSpaceOnUse">
<stop stop-color="#FFA981" stop-opacity="0"/>
<stop offset="1" stop-color="#B82934"/>
</linearGradient>
<linearGradient id="paint20_linear_9:380" x1="64.6732" y1="-11.2446" x2="45.1159" y2="21.5215" gradientUnits="userSpaceOnUse">
<stop stop-color="#FFA981" stop-opacity="0"/>
<stop offset="1" stop-color="#B82934"/>
</linearGradient>
<linearGradient id="paint21_linear_9:380" x1="69.6122" y1="-18.814" x2="35.1715" y2="27.8867" gradientUnits="userSpaceOnUse">
<stop stop-color="#FFA981" stop-opacity="0"/>
<stop offset="1" stop-color="#B82934"/>
</linearGradient>
<linearGradient id="paint22_linear_9:380" x1="36.357" y1="29.6618" x2="30.1311" y2="20.9847" gradientUnits="userSpaceOnUse">
<stop stop-color="#FEFFB3"/>
<stop offset="1" stop-color="#FFCD77"/>
</linearGradient>
<radialGradient id="paint23_radial_9:380" cx="0" cy="0" r="1" gradientUnits="userSpaceOnUse" gradientTransform="translate(12.8151 39.6471) rotate(-98.5909) scale(7.66746)">
<stop stop-color="#FEFFB3"/>
<stop offset="0.193" stop-color="#FEF296"/>
<stop offset="0.609" stop-color="#FFD14B"/>
<stop offset="1" stop-color="#FFAF00"/>
</radialGradient>
<radialGradient id="paint24_radial_9:380" cx="0" cy="0" r="1" gradientUnits="userSpaceOnUse" gradientTransform="translate(20.0317 36.3352) rotate(-98.5909) scale(3.80727)">
<stop stop-color="#FEFFB3"/>
<stop offset="0.193" stop-color="#FEF296"/>
<stop offset="0.609" stop-color="#FFD14B"/>
<stop offset="1" stop-color="#FFAF00"/>
</radialGradient>
<radialGradient id="paint25_radial_9:380" cx="0" cy="0" r="1" gradientUnits="userSpaceOnUse" gradientTransform="translate(18.5537 31.4506) rotate(-98.5909) scale(3.80726)">
<stop stop-color="#FEFFB3"/>
<stop offset="0.193" stop-color="#FEF296"/>
<stop offset="0.609" stop-color="#FFD14B"/>
<stop offset="1" stop-color="#FFAF00"/>
</radialGradient>
<radialGradient id="paint26_radial_9:380" cx="0" cy="0" r="1" gradientUnits="userSpaceOnUse" gradientTransform="translate(24.3723 32.7185) rotate(-98.5909) scale(3.80727)">
<stop stop-color="#FEFFB3"/>
<stop offset="0.193" stop-color="#FEF296"/>
<stop offset="0.609" stop-color="#FFD14B"/>
<stop offset="1" stop-color="#FFAF00"/>
</radialGradient>
<radialGradient id="paint27_radial_9:380" cx="0" cy="0" r="1" gradientUnits="userSpaceOnUse" gradientTransform="translate(24.5084 27.7362) rotate(-98.5909) scale(3.80727)">
<stop stop-color="#FEFFB3"/>
<stop offset="0.193" stop-color="#FEF296"/>
<stop offset="0.609" stop-color="#FFD14B"/>
<stop offset="1" stop-color="#FFAF00"/>
</radialGradient>
<clipPath id="clip0_9:380">
<rect width="90" height="90" fill="white" transform="translate(13.4441 64.4343) rotate(-98.5909)"/>
</clipPath>
</defs>
</svg>
