<svg width="25" height="24" viewBox="0 0 25 24" fill="none" xmlns="http://www.w3.org/2000/svg">
<path d="M23.8644 20.8125H22.9136V2.625C22.9136 2.36611 22.7007 2.15625 22.4382 2.15625H18.9362V0.46875C18.9362 0.209859 18.7233 0 18.4608 0H5.87895C5.61644 0 5.40356 0.209859 5.40356 0.46875V2.15625H1.90154C1.63903 2.15625 1.42616 2.36611 1.42616 2.625V20.8125H0.475385C0.21283 20.8125 0 21.0224 0 21.2812V23.5312C0 23.7901 0.21283 24 0.475385 24H10.0308C10.2933 24 10.5062 23.7901 10.5062 23.5312C10.5062 23.2724 10.2933 23.0625 10.0308 23.0625H0.950771V21.75H23.389V23.0625H14.309C14.0465 23.0625 13.8336 23.2724 13.8336 23.5312C13.8336 23.7901 14.0465 24 14.309 24H23.8644C24.1269 24 24.3397 23.7901 24.3397 23.5312V21.2812C24.3397 21.0224 24.1269 20.8125 23.8644 20.8125ZM6.35434 0.9375H17.9854V2.15625H6.35434V0.9375ZM11.6945 20.8125H9.22248V18C9.22248 16.5571 10.2946 15.357 11.6945 15.1321V20.8125ZM12.6453 20.8125V15.1321C14.0451 15.357 15.1173 16.5571 15.1173 18V20.8125H12.6453ZM16.068 20.8125V18C16.068 15.8805 14.3193 14.1562 12.1699 14.1562C10.0204 14.1562 8.27171 15.8805 8.27171 18V20.8125H2.37693V3.09375H21.9628V20.8125H16.068Z" fill="black"/>
<path d="M6.46524 5.15625H4.18339C3.92089 5.15625 3.70801 5.36611 3.70801 5.625V7.875C3.70801 8.13389 3.92089 8.34375 4.18339 8.34375H6.46524C6.7278 8.34375 6.94063 8.13389 6.94063 7.875V5.625C6.94063 5.36611 6.7278 5.15625 6.46524 5.15625ZM5.98986 7.40625H4.65878V6.09375H5.98986V7.40625Z" fill="black"/>
<path d="M11.029 5.15625H8.74711C8.48456 5.15625 8.27173 5.36611 8.27173 5.625V7.875C8.27173 8.13389 8.48456 8.34375 8.74711 8.34375H11.029C11.2915 8.34375 11.5043 8.13389 11.5043 7.875V5.625C11.5043 5.36611 11.2915 5.15625 11.029 5.15625ZM10.5536 7.40625H9.2225V6.09375H10.5536V7.40625Z" fill="black"/>
<path d="M15.5927 5.15625H13.3108C13.0483 5.15625 12.8354 5.36611 12.8354 5.625V7.875C12.8354 8.13389 13.0483 8.34375 13.3108 8.34375H15.5927C15.8552 8.34375 16.0681 8.13389 16.0681 7.875V5.625C16.0681 5.36611 15.8552 5.15625 15.5927 5.15625ZM15.1173 7.40625H13.7862V6.09375H15.1173V7.40625Z" fill="black"/>
<path d="M20.1564 5.15625H17.8746C17.612 5.15625 17.3992 5.36611 17.3992 5.625V7.875C17.3992 8.13389 17.612 8.34375 17.8746 8.34375H20.1564C20.4189 8.34375 20.6318 8.13389 20.6318 7.875V5.625C20.6318 5.36611 20.4189 5.15625 20.1564 5.15625ZM19.681 7.40625H18.3499V6.09375H19.681V7.40625Z" fill="black"/>
<path d="M6.46524 9.65625H4.18339C3.92089 9.65625 3.70801 9.86611 3.70801 10.125V12.375C3.70801 12.6339 3.92089 12.8438 4.18339 12.8438H6.46524C6.7278 12.8438 6.94063 12.6339 6.94063 12.375V10.125C6.94063 9.86611 6.7278 9.65625 6.46524 9.65625ZM5.98986 11.9062H4.65878V10.5938H5.98986V11.9062Z" fill="black"/>
<path d="M11.029 9.65625H8.74711C8.48456 9.65625 8.27173 9.86611 8.27173 10.125V12.375C8.27173 12.6339 8.48456 12.8438 8.74711 12.8438H11.029C11.2915 12.8438 11.5043 12.6339 11.5043 12.375V10.125C11.5043 9.86611 11.2915 9.65625 11.029 9.65625ZM10.5536 11.9062H9.2225V10.5938H10.5536V11.9062Z" fill="black"/>
<path d="M15.5927 9.65625H13.3108C13.0483 9.65625 12.8354 9.86611 12.8354 10.125V12.375C12.8354 12.6339 13.0483 12.8438 13.3108 12.8438H15.5927C15.8552 12.8438 16.0681 12.6339 16.0681 12.375V10.125C16.0681 9.86611 15.8552 9.65625 15.5927 9.65625ZM15.1173 11.9062H13.7862V10.5938H15.1173V11.9062Z" fill="black"/>
<path d="M20.1564 9.65625H17.8746C17.612 9.65625 17.3992 9.86611 17.3992 10.125V12.375C17.3992 12.6339 17.612 12.8438 17.8746 12.8438H20.1564C20.4189 12.8438 20.6318 12.6339 20.6318 12.375V10.125C20.6318 9.86611 20.4189 9.65625 20.1564 9.65625ZM19.681 11.9062H18.3499V10.5938H19.681V11.9062Z" fill="black"/>
<path d="M6.46524 14.1562H4.18339C3.92089 14.1562 3.70801 14.3661 3.70801 14.625V16.875C3.70801 17.1339 3.92089 17.3438 4.18339 17.3438H6.46524C6.7278 17.3438 6.94063 17.1339 6.94063 16.875V14.625C6.94063 14.3661 6.7278 14.1562 6.46524 14.1562ZM5.98986 16.4062H4.65878V15.0938H5.98986V16.4062Z" fill="black"/>
<path d="M20.1564 14.1562H17.8746C17.612 14.1562 17.3992 14.3661 17.3992 14.625V16.875C17.3992 17.1339 17.612 17.3438 17.8746 17.3438H20.1564C20.4189 17.3438 20.6318 17.1339 20.6318 16.875V14.625C20.6318 14.3661 20.4189 14.1562 20.1564 14.1562ZM19.681 16.4062H18.3499V15.0938H19.681V16.4062Z" fill="black"/>
<path d="M12.17 23.0625C12.0449 23.0625 11.9223 23.1127 11.8339 23.1998C11.7454 23.287 11.6946 23.408 11.6946 23.5312C11.6946 23.6545 11.7454 23.7755 11.8339 23.8627C11.9223 23.9498 12.0449 24 12.17 24C12.295 24 12.4176 23.9498 12.506 23.8627C12.5944 23.7755 12.6454 23.6545 12.6454 23.5312C12.6454 23.408 12.5945 23.287 12.506 23.1998C12.4176 23.1127 12.295 23.0625 12.17 23.0625Z" fill="black"/>
</svg>
