<svg width="30" height="30" viewBox="0 0 30 30" fill="none" xmlns="http://www.w3.org/2000/svg">
<g clip-path="url(#clip0_44:2336)">
<path d="M23.75 16.25C23.6062 16.25 23.4637 16.2013 23.3475 16.1025C23.1087 15.9025 17.5 11.1175 17.5 6.25C17.5 2.80375 20.3037 0 23.75 0C27.1962 0 30 2.80375 30 6.25C30 11.1175 24.3912 15.9025 24.1525 16.1025C24.0362 16.2013 23.8937 16.25 23.75 16.25ZM23.75 1.25C20.9925 1.25 18.75 3.4925 18.75 6.25C18.75 9.835 22.4962 13.62 23.75 14.785C25.0037 13.6187 28.75 9.835 28.75 6.25C28.75 3.4925 26.5075 1.25 23.75 1.25Z" fill="#87A900"/>
<path d="M23.75 8.74999C22.3712 8.74999 21.25 7.62874 21.25 6.25C21.25 4.87125 22.3712 3.75 23.75 3.75C25.1287 3.75 26.25 4.87125 26.25 6.25C26.25 7.62874 25.1287 8.74999 23.75 8.74999ZM23.75 5C23.0612 5 22.5 5.56 22.5 6.25C22.5 6.94 23.0612 7.49999 23.75 7.49999C24.4387 7.49999 25 6.94 25 6.25C25 5.56 24.4387 5 23.75 5Z" fill="#87A900"/>
<path d="M3.75 28.75C3.6025 28.75 3.45375 28.6975 3.335 28.5925C3.2 28.4725 0 25.6062 0 22.6562C0 20.5025 1.6825 18.75 3.75 18.75C5.8175 18.75 7.5 20.5025 7.5 22.6562C7.5 25.6062 4.3 28.4725 4.165 28.5925C4.04625 28.6975 3.8975 28.75 3.75 28.75ZM3.75 20C2.37125 20 1.25 21.1912 1.25 22.6562C1.25 24.485 2.945 26.4325 3.75 27.255C4.555 26.4337 6.25 24.485 6.25 22.6562C6.25 21.1912 5.12875 20 3.75 20Z" fill="#87A900"/>
<path d="M19.8925 30H3.75C3.405 30 3.125 29.72 3.125 29.375C3.125 29.03 3.405 28.75 3.75 28.75H19.8925C20.29 28.75 20.4387 28.445 20.475 28.3512C20.5112 28.2575 20.6063 27.93 20.3125 27.6625L11.3475 19.5125C10.77 18.9862 10.5787 18.1762 10.86 17.4487C11.1412 16.72 11.8275 16.25 12.6075 16.25H23.75C24.095 16.25 24.375 16.53 24.375 16.875C24.375 17.22 24.095 17.5 23.75 17.5H12.6075C12.21 17.5 12.0612 17.805 12.025 17.8987C11.9887 17.9925 11.8938 18.32 12.1875 18.5875L21.1525 26.7375C21.73 27.2637 21.9212 28.0737 21.64 28.8012C21.3588 29.53 20.6725 30 19.8925 30Z" fill="#87A900"/>
<path d="M3.75 23.75C3.06125 23.75 2.5 23.19 2.5 22.5C2.5 21.81 3.06125 21.25 3.75 21.25C4.43875 21.25 5 21.81 5 22.5C5 23.19 4.43875 23.75 3.75 23.75ZM3.75 22.4988C3.75 22.4988 3.75 22.5 3.75 22.4988L4.375 22.5L3.75 22.4988Z" fill="#87A900"/>
</g>
<defs>
<clipPath id="clip0_44:2336">
<rect width="30" height="30" fill="white"/>
</clipPath>
</defs>
</svg>
