<svg width="30" height="30" viewBox="0 0 30 30" fill="none" xmlns="http://www.w3.org/2000/svg">
<g clip-path="url(#clip0_44:2329)">
<path d="M29.0617 13.859H17.187C16.6695 13.859 16.2495 13.4451 16.2495 12.9351C16.2495 12.4251 16.6695 12.0112 17.187 12.0112H29.0617C29.5792 12.0112 29.9992 12.4251 29.9992 12.9351C29.9992 13.4451 29.5792 13.859 29.0617 13.859Z" fill="#E50914"/>
<path d="M24.3743 18.4782C24.1342 18.4782 23.8943 18.3882 23.7117 18.2073C23.3455 17.8462 23.3455 17.2611 23.7117 16.9002L27.7367 12.9339L23.7117 8.96733C23.3455 8.60644 23.3455 8.02136 23.7117 7.66048C24.0781 7.29937 24.6718 7.29937 25.038 7.66048L29.7253 12.2798C30.0915 12.6407 30.0915 13.2257 29.7253 13.5866L25.038 18.2059C24.8542 18.3882 24.6143 18.4782 24.3743 18.4782Z" fill="#E50914"/>
<path d="M9.99976 29.565C9.73221 29.565 9.47839 29.528 9.22479 29.4504L1.70237 26.9806C0.678842 26.6283 0 25.6884 0 24.6378V2.46516C0 1.10644 1.12126 0.00146484 2.5 0.00146484C2.76732 0.00146484 3.02115 0.0384553 3.27497 0.116045L10.7972 2.58583C11.8209 2.93815 12.4995 3.87802 12.4995 4.92864V27.1013C12.4995 28.46 11.3785 29.565 9.99976 29.565ZM2.5 1.84918C2.15623 1.84918 1.87494 2.12639 1.87494 2.46516V24.6378C1.87494 24.9001 2.05369 25.1439 2.30866 25.2314L9.79584 27.6902C9.84962 27.7073 9.91966 27.7172 9.99976 27.7172C10.3435 27.7172 10.6246 27.44 10.6246 27.1013V4.92864C10.6246 4.66632 10.4458 4.4225 10.1909 4.33499L2.7037 1.87625C2.64991 1.85911 2.57988 1.84918 2.5 1.84918Z" fill="#E50914"/>
<path d="M19.0618 9.85555C18.5443 9.85555 18.1243 9.44166 18.1243 8.93169V3.38854C18.1243 2.53978 17.4233 1.84869 16.562 1.84869H2.49997C1.98249 1.84869 1.5625 1.43481 1.5625 0.924836C1.5625 0.414864 1.98249 0.000976562 2.49997 0.000976562H16.562C18.4583 0.000976562 19.9993 1.51984 19.9993 3.38854V8.93169C19.9993 9.44166 19.5793 9.85555 19.0618 9.85555Z" fill="#E50914"/>
<path d="M16.562 25.8687H11.562C11.0445 25.8687 10.6245 25.4548 10.6245 24.9449C10.6245 24.4349 11.0445 24.021 11.562 24.021H16.562C17.4232 24.021 18.1243 23.3299 18.1243 22.4812V16.938C18.1243 16.428 18.5443 16.0142 19.0617 16.0142C19.5792 16.0142 19.9992 16.428 19.9992 16.938V22.4812C19.9992 24.3499 18.4582 25.8687 16.562 25.8687Z" fill="#E50914"/>
</g>
<defs>
<clipPath id="clip0_44:2329">
<rect width="30" height="29.5644" fill="white"/>
</clipPath>
</defs>
</svg>
