<svg width="141" height="112" viewBox="0 0 141 112" fill="none" xmlns="http://www.w3.org/2000/svg">
<g clip-path="url(#clip0_9:409)">
<path d="M-12.6648 23.3952C-12.6648 23.3952 -16.1238 0.0807874 18.5943 -41.747C18.5939 -41.7473 1.86797 0.327053 -12.6648 23.3952Z" fill="url(#paint0_linear_9:409)"/>
<path d="M-12.6648 23.3952C1.86775 0.327238 18.5942 -41.7471 18.5942 -41.7471C18.5942 -41.7471 -9.16055 4.21394 -12.6648 23.3952Z" fill="url(#paint1_linear_9:409)"/>
<path d="M52.5443 4.72541C52.5443 4.72541 64.565 20.8103 110.825 21.1461C110.825 21.1461 75.2724 8.12643 52.5443 4.72541Z" fill="url(#paint2_linear_9:409)"/>
<path d="M52.5443 4.7254C75.2724 8.12643 110.825 21.1461 110.825 21.1461C110.825 21.1461 66.2659 13.5332 52.5443 4.7254Z" fill="url(#paint3_linear_9:409)"/>
<path d="M-11.7022 26.8656C-11.7022 26.8656 -7.04688 44.1287 29.2469 59.2905C29.2468 59.2907 5.16319 37.0099 -11.7022 26.8656Z" fill="url(#paint4_linear_9:409)"/>
<path d="M-11.7022 26.8658C5.16331 37.0099 29.2469 59.2907 29.2469 59.2907C29.2469 59.2907 -3.5364 38.6156 -11.7022 26.8658Z" fill="url(#paint5_linear_9:409)"/>
<path d="M65.3038 3.95751C65.3038 3.95751 84.1852 -4.2522 132.279 14.2384C132.279 14.2384 90.2243 10.4097 65.3038 3.95751Z" fill="url(#paint6_linear_9:409)"/>
<path d="M65.3038 3.95751C90.2243 10.4097 132.279 14.2384 132.279 14.2384C132.279 14.2384 83.0447 2.35787 65.3038 3.95751Z" fill="url(#paint7_linear_9:409)"/>
<path d="M-0.665961 16.3354C-0.665961 16.3354 8.10012 -33.9257 47.4851 -46.7551C47.4848 -46.7552 21.1962 -31.1003 -0.665961 16.3354Z" fill="url(#paint8_linear_9:409)"/>
<path d="M47.4848 -46.7551C47.4522 -46.7444 47.4202 -46.7322 47.3875 -46.7216C45.5208 -46.0634 16.7066 -35.1584 -0.666352 16.3356C21.1962 -31.1002 47.4848 -46.7551 47.4848 -46.7551Z" fill="url(#paint9_linear_9:409)"/>
<path d="M9.93672 11.5272C9.93672 11.5272 33.0156 -27.1567 63.647 -42.2417C63.6469 -42.2415 22.2414 -37.0992 9.93672 11.5272Z" fill="url(#paint10_linear_9:409)"/>
<path d="M63.6469 -42.2414C63.6469 -42.2414 30.1495 -34.777 9.93673 11.5273C9.93673 11.5273 33.016 -27.1566 63.6469 -42.2414Z" fill="url(#paint11_linear_9:409)"/>
<path d="M20.9326 7.7345C20.9326 7.7345 35.99 -35.6921 78.365 -32.6605C78.3655 -32.6602 46.9289 -27.4069 20.9326 7.7345Z" fill="url(#paint12_linear_9:409)"/>
<path d="M78.3652 -32.6602C42.4725 -31.5696 20.9323 7.73447 20.9323 7.73447C46.9286 -27.4069 78.3652 -32.6602 78.3652 -32.6602Z" fill="url(#paint13_linear_9:409)"/>
<path d="M31.9412 4.7867C31.9412 4.7867 56.8116 -19.9929 90.1713 -25.1605C90.1712 -25.1608 52.5116 -31.1854 31.9412 4.7867Z" fill="url(#paint14_linear_9:409)"/>
<path d="M90.1713 -25.1609C53.3294 -24.7518 31.9414 4.78638 31.9414 4.78638C31.9414 4.78638 56.8117 -19.993 90.1713 -25.1609Z" fill="url(#paint15_linear_9:409)"/>
<path d="M43.3096 3.26015C43.3096 3.26015 74.2914 -29.9841 105.507 -12.5655C105.507 -12.5655 72.6383 -20.2112 43.3096 3.26015Z" fill="url(#paint16_linear_9:409)"/>
<path d="M105.507 -12.5655C69.7771 -24.4589 43.3096 3.26015 43.3096 3.26015C72.6383 -20.2112 105.507 -12.5655 105.507 -12.5655Z" fill="url(#paint17_linear_9:409)"/>
<path d="M54.7052 2.74169C54.7052 2.74169 76.2514 -19.6799 109.508 -0.701312C109.508 -0.701312 75.9463 -8.03638 54.7052 2.74169Z" fill="url(#paint18_linear_9:409)"/>
<path d="M109.507 -0.70121C77.8664 -13.3067 54.7052 2.74194 54.7052 2.74194C75.946 -8.03605 109.507 -0.70121 109.507 -0.70121Z" fill="url(#paint19_linear_9:409)"/>
<path d="M-0.299674 20.0648C-0.299674 20.0648 23.4547 47.7622 52.3654 51.6091C52.3656 51.6092 14.3862 60.2514 -0.299674 20.0648Z" fill="url(#paint20_linear_9:409)"/>
<path d="M52.3654 51.6093C52.3654 51.6093 21.4014 55.6014 -0.299674 20.0651C-0.299893 20.0649 23.4547 47.7625 52.3654 51.6093Z" fill="url(#paint21_linear_9:409)"/>
<path d="M9.54921 14.8856C9.54921 14.8856 25.6862 56.0054 67.6666 47.1233C67.6663 47.1234 36.3172 46.2485 9.54921 14.8856Z" fill="url(#paint22_linear_9:409)"/>
<path d="M67.6656 47.1233C32.007 51.0065 9.54823 14.8856 9.54823 14.8856C36.3166 46.2484 67.6656 47.1233 67.6656 47.1233Z" fill="url(#paint23_linear_9:409)"/>
<path d="M31.6935 7.54295C31.6935 7.54295 55.4525 31.0282 88.6146 34.4255C88.6143 34.4254 50.6308 42.4632 31.6935 7.54295Z" fill="url(#paint24_linear_9:409)"/>
<path d="M88.6143 34.4254C51.7462 35.9779 31.6935 7.54296 31.6935 7.54296C31.6935 7.54296 55.4523 31.0281 88.6143 34.4254Z" fill="url(#paint25_linear_9:409)"/>
<path d="M40.2389 5.62316C40.2389 5.62316 69.7454 40.6261 103.749 24.2057C103.749 24.206 68.8424 30.6376 40.2389 5.62316Z" fill="url(#paint26_linear_9:409)"/>
<path d="M103.748 24.2062C65.5024 34.8343 40.2379 5.62365 40.2379 5.62365C68.8416 30.6377 103.748 24.2062 103.748 24.2062Z" fill="url(#paint27_linear_9:409)"/>
<path d="M20.5817 10.6045C20.5817 10.6045 28.9115 41.538 76.9887 43.4868C76.9888 43.4866 36.2375 31.4198 20.5817 10.6045Z" fill="url(#paint28_linear_9:409)"/>
<path d="M76.9889 43.4867C34.8292 36.9734 20.5815 10.6045 20.5815 10.6045C36.2376 31.4199 76.9889 43.4867 76.9889 43.4867Z" fill="url(#paint29_linear_9:409)"/>
<path d="M65.3034 3.9575C65.3034 3.9575 19.1538 -7.25825 -36.9047 40.3255C-36.9047 40.3255 -27.9478 37.7881 -14.3837 28.3986C8.74084 12.3914 36.783 3.14442 65.3034 3.9575Z" fill="url(#paint30_linear_9:409)"/>
<path d="M65.3034 3.9575C12.8167 -1.23556 -36.0269 39.5882 -36.8918 40.3148C-36.8962 40.3184 -36.9004 40.3219 -36.9045 40.3253C-36.9045 40.3253 -27.9477 37.7878 -14.3836 28.3984C8.74085 12.3914 36.783 3.14442 65.3034 3.9575Z" fill="url(#paint31_linear_9:409)"/>
<path d="M30.0391 65.212C30.0391 65.212 66.5101 73.3212 83.6532 55.3097C83.6532 55.3097 61.4841 68.7749 30.0391 65.212Z" fill="url(#paint32_linear_9:409)"/>
<path d="M83.6532 55.3097C60.9338 71.7893 30.0391 65.212 30.0391 65.212C61.4841 68.7749 83.6532 55.3097 83.6532 55.3097Z" fill="url(#paint33_linear_9:409)"/>
<path d="M36.7568 65.9464C36.7568 65.9464 77.0103 73.5698 95.1743 53.2353C95.1742 53.2356 71.3441 68.7618 36.7568 65.9464Z" fill="url(#paint34_linear_9:409)"/>
<path d="M95.1743 53.2356C70.845 72.0843 36.7568 65.9466 36.7568 65.9466C71.3442 68.7618 95.1743 53.2356 95.1743 53.2356Z" fill="url(#paint35_linear_9:409)"/>
<path d="M104.599 51.9894C102.076 53.3491 99.5373 54.6757 96.9316 55.8588C96.281 56.156 95.6363 56.4651 94.9832 56.7552L93.0119 57.5994L92.0265 58.0206L91.0291 58.4132L89.0358 59.1981C86.354 60.1795 83.6608 61.1283 80.9161 61.9043C79.5548 62.3268 78.1668 62.658 76.7926 63.0308L74.7129 63.52L73.6732 63.7625L72.6269 63.976C67.0583 65.1615 61.4017 65.8817 55.731 66.1826C52.8954 66.3409 50.0551 66.371 47.2187 66.3214C44.3816 66.2696 41.5487 66.0838 38.7251 65.8241C33.0785 65.2814 27.482 64.2934 21.9782 62.9578C16.4746 61.6185 11.0366 60.0349 5.66314 58.2276C0.291166 56.4164 -5.00975 54.3614 -10.2147 52.0512C-12.8142 50.891 -15.3997 49.6863 -17.9513 48.4032C-20.509 47.1332 -23.04 45.7902 -25.5226 44.3603L-25.7281 44.6419C-23.5219 46.5216 -21.1539 48.1789 -18.747 49.7834C-17.5366 50.5741 -16.3085 51.3379 -15.0721 52.0904C-13.8326 52.8375 -12.5723 53.5488 -11.3048 54.2489C-6.2276 57.0354 -0.944795 59.4688 4.49206 61.513C9.92866 63.5576 15.5335 65.1748 21.232 66.3294C24.0834 66.8971 26.9535 67.3639 29.8328 67.7462C32.7112 68.1345 35.6019 68.4304 38.4998 68.6055C41.3962 68.7922 44.2976 68.9027 47.1994 68.8763C50.1003 68.8481 53 68.7372 55.8893 68.4966C61.6656 67.996 67.4009 67.069 73.0159 65.6758L74.0692 65.4179L75.115 65.1305L77.2044 64.5527C78.5839 64.1206 79.9752 63.7306 81.3373 63.2492C84.0841 62.3559 86.7693 61.291 89.4349 60.1961L91.4146 59.3265L92.4037 58.8918L93.3801 58.4286L95.3311 57.5017C95.977 57.1838 96.6149 56.8493 97.2557 56.5225C99.8203 55.2149 102.308 53.7669 104.773 52.2909L104.599 51.9894Z" fill="url(#paint36_linear_9:409)"/>
<path d="M-25.5221 44.3606C-23.0397 45.7904 -20.5086 47.1332 -17.9508 48.4036C-15.3995 49.6865 -12.8139 50.8912 -10.2142 52.0515C-5.00962 54.3619 0.291866 56.4169 5.66362 58.228C11.0371 60.0353 16.4751 61.6188 21.9787 62.9582C27.4823 64.294 33.079 65.2817 38.7256 65.8245C41.5491 66.0842 44.3817 66.2701 47.2192 66.3218C50.0557 66.3711 52.896 66.3411 55.7313 66.1831C61.402 65.8823 67.0586 65.162 72.6273 63.9765L73.6735 63.7631L74.7132 63.5205L76.793 63.0314C78.1673 62.6583 79.5548 62.3275 80.9166 61.9046C83.6615 61.1287 86.3542 60.1797 89.0363 59.1985L91.0296 58.4135L92.0269 58.0209L93.0123 57.5997L94.9836 56.7556C95.637 56.4656 96.2816 56.1567 96.932 55.8592C99.5379 54.6764 102.076 53.3491 104.599 51.9898C104.599 51.9895 46.5942 92.258 -25.5221 44.3606Z" fill="url(#paint37_linear_9:409)"/>
<path d="M19.1909 66.0246C19.1909 66.0246 51.4057 79.321 81.4394 73.9746C81.4397 73.9745 53.1014 89.8039 19.1909 66.0246Z" fill="url(#paint38_linear_9:409)"/>
<path d="M81.4396 73.9746C50.7578 84.255 19.1912 66.0245 19.1912 66.0245C19.1912 66.0245 51.4059 79.3213 81.4396 73.9746Z" fill="url(#paint39_linear_9:409)"/>
<path d="M31.8913 67.9627C31.8913 67.9627 66.0458 74.8959 94.5163 63.9398C94.5165 63.9399 69.702 84.8658 31.8913 67.9627Z" fill="url(#paint40_linear_9:409)"/>
<path d="M94.5163 63.94C66.3469 79.8632 31.8913 67.963 31.8913 67.963C31.8913 67.963 66.0456 74.896 94.5163 63.94Z" fill="url(#paint41_linear_9:409)"/>
<path d="M47.676 68.7703C47.676 68.7703 81.118 67.0748 104.146 54.8744C104.146 54.8744 87.3716 72.8405 47.676 68.7703Z" fill="url(#paint42_linear_9:409)"/>
<path d="M104.146 54.8744C82.8343 70.2219 47.676 68.7703 47.676 68.7703C47.676 68.7703 81.1184 67.0747 104.146 54.8744Z" fill="url(#paint43_linear_9:409)"/>
</g>
<defs>
<linearGradient id="paint0_linear_9:409" x1="10.6521" y1="-34.7782" x2="-12.1659" y2="25.9313" gradientUnits="userSpaceOnUse">
<stop offset="0.003" stop-color="#FFE000"/>
<stop offset="0.142" stop-color="#DCDE00"/>
<stop offset="0.274" stop-color="#C3DD00"/>
<stop offset="0.393" stop-color="#B4DC00"/>
<stop offset="0.491" stop-color="#AFDC00"/>
<stop offset="0.715" stop-color="#AEDA00"/>
<stop offset="0.796" stop-color="#A8D300"/>
<stop offset="0.854" stop-color="#9FC800"/>
<stop offset="0.901" stop-color="#91B700"/>
<stop offset="0.941" stop-color="#80A100"/>
<stop offset="0.975" stop-color="#6B8600"/>
<stop offset="1" stop-color="#586E00"/>
</linearGradient>
<linearGradient id="paint1_linear_9:409" x1="10.3201" y1="-6.40989" x2="-7.31473" y2="-13.038" gradientUnits="userSpaceOnUse">
<stop stop-color="#AFDC00" stop-opacity="0"/>
<stop offset="0.472" stop-color="#84A600" stop-opacity="0.472"/>
<stop offset="1" stop-color="#586E00"/>
</linearGradient>
<linearGradient id="paint2_linear_9:409" x1="101.822" y1="22.573" x2="51.689" y2="1.96958" gradientUnits="userSpaceOnUse">
<stop offset="0.003" stop-color="#FFE000"/>
<stop offset="0.142" stop-color="#DCDE00"/>
<stop offset="0.274" stop-color="#C3DD00"/>
<stop offset="0.393" stop-color="#B4DC00"/>
<stop offset="0.491" stop-color="#AFDC00"/>
<stop offset="0.715" stop-color="#AEDA00"/>
<stop offset="0.796" stop-color="#A8D300"/>
<stop offset="0.854" stop-color="#9FC800"/>
<stop offset="0.901" stop-color="#91B700"/>
<stop offset="0.941" stop-color="#80A100"/>
<stop offset="0.975" stop-color="#6B8600"/>
<stop offset="1" stop-color="#586E00"/>
</linearGradient>
<linearGradient id="paint3_linear_9:409" x1="84.4275" y1="6.25315" x2="78.15" y2="22.4005" gradientUnits="userSpaceOnUse">
<stop stop-color="#AFDC00" stop-opacity="0"/>
<stop offset="0.472" stop-color="#84A600" stop-opacity="0.472"/>
<stop offset="1" stop-color="#586E00"/>
</linearGradient>
<linearGradient id="paint4_linear_9:409" x1="21.8461" y1="57.3679" x2="-12.6596" y2="25.5546" gradientUnits="userSpaceOnUse">
<stop offset="0.003" stop-color="#FFE000"/>
<stop offset="0.142" stop-color="#DCDE00"/>
<stop offset="0.274" stop-color="#C3DD00"/>
<stop offset="0.393" stop-color="#B4DC00"/>
<stop offset="0.491" stop-color="#AFDC00"/>
<stop offset="0.715" stop-color="#AEDA00"/>
<stop offset="0.796" stop-color="#A8D300"/>
<stop offset="0.854" stop-color="#9FC800"/>
<stop offset="0.901" stop-color="#91B700"/>
<stop offset="0.941" stop-color="#80A100"/>
<stop offset="0.975" stop-color="#6B8600"/>
<stop offset="1" stop-color="#586E00"/>
</linearGradient>
<linearGradient id="paint5_linear_9:409" x1="12.2338" y1="39.3219" x2="3.69502" y2="48.5737" gradientUnits="userSpaceOnUse">
<stop stop-color="#AFDC00" stop-opacity="0"/>
<stop offset="0.472" stop-color="#84A600" stop-opacity="0.472"/>
<stop offset="1" stop-color="#586E00"/>
</linearGradient>
<linearGradient id="paint6_linear_9:409" x1="123.726" y1="8.68531" x2="63.1629" y2="6.98362" gradientUnits="userSpaceOnUse">
<stop offset="0.003" stop-color="#FFE000"/>
<stop offset="0.142" stop-color="#DCDE00"/>
<stop offset="0.274" stop-color="#C3DD00"/>
<stop offset="0.393" stop-color="#B4DC00"/>
<stop offset="0.491" stop-color="#AFDC00"/>
<stop offset="0.715" stop-color="#AEDA00"/>
<stop offset="0.796" stop-color="#A8D300"/>
<stop offset="0.854" stop-color="#9FC800"/>
<stop offset="0.901" stop-color="#91B700"/>
<stop offset="0.941" stop-color="#80A100"/>
<stop offset="0.975" stop-color="#6B8600"/>
<stop offset="1" stop-color="#586E00"/>
</linearGradient>
<linearGradient id="paint7_linear_9:409" x1="98.5101" y1="19.0303" x2="99.1566" y2="-4.02269" gradientUnits="userSpaceOnUse">
<stop stop-color="#AFDC00" stop-opacity="0"/>
<stop offset="0.472" stop-color="#84A600" stop-opacity="0.472"/>
<stop offset="1" stop-color="#586E00"/>
</linearGradient>
<linearGradient id="paint8_linear_9:409" x1="31.9867" y1="-36.9283" x2="-1.1385" y2="33.2526" gradientUnits="userSpaceOnUse">
<stop offset="0.003" stop-color="#FFE000"/>
<stop offset="0.142" stop-color="#DCDE00"/>
<stop offset="0.274" stop-color="#C3DD00"/>
<stop offset="0.393" stop-color="#B4DC00"/>
<stop offset="0.491" stop-color="#AFDC00"/>
<stop offset="0.556" stop-color="#A1CA00"/>
<stop offset="0.759" stop-color="#7A9900"/>
<stop offset="0.914" stop-color="#617A00"/>
<stop offset="1" stop-color="#586E00"/>
</linearGradient>
<linearGradient id="paint9_linear_9:409" x1="22.6638" y1="-15.8036" x2="11.7947" y2="-24.4993" gradientUnits="userSpaceOnUse">
<stop stop-color="#AFDC00" stop-opacity="0"/>
<stop offset="0.472" stop-color="#84A600" stop-opacity="0.472"/>
<stop offset="1" stop-color="#586E00"/>
</linearGradient>
<linearGradient id="paint10_linear_9:409" x1="49.7077" y1="-39.1138" x2="8.64761" y2="22.3396" gradientUnits="userSpaceOnUse">
<stop offset="0.003" stop-color="#FFE000"/>
<stop offset="0.142" stop-color="#DCDE00"/>
<stop offset="0.274" stop-color="#C3DD00"/>
<stop offset="0.393" stop-color="#B4DC00"/>
<stop offset="0.491" stop-color="#AFDC00"/>
<stop offset="0.556" stop-color="#A1CA00"/>
<stop offset="0.759" stop-color="#7A9900"/>
<stop offset="0.914" stop-color="#617A00"/>
<stop offset="1" stop-color="#586E00"/>
</linearGradient>
<linearGradient id="paint11_linear_9:409" x1="40.3096" y1="-12.6049" x2="22.5202" y2="-26.5103" gradientUnits="userSpaceOnUse">
<stop stop-color="#AFDC00" stop-opacity="0"/>
<stop offset="0.472" stop-color="#84A600" stop-opacity="0.472"/>
<stop offset="1" stop-color="#586E00"/>
</linearGradient>
<linearGradient id="paint12_linear_9:409" x1="67.2989" y1="-35.9328" x2="23.1644" y2="14.3417" gradientUnits="userSpaceOnUse">
<stop offset="0.003" stop-color="#FFE000"/>
<stop offset="0.142" stop-color="#DCDE00"/>
<stop offset="0.274" stop-color="#C3DD00"/>
<stop offset="0.393" stop-color="#B4DC00"/>
<stop offset="0.491" stop-color="#AFDC00"/>
<stop offset="0.556" stop-color="#A1CA00"/>
<stop offset="0.759" stop-color="#7A9900"/>
<stop offset="0.914" stop-color="#617A00"/>
<stop offset="1" stop-color="#586E00"/>
</linearGradient>
<linearGradient id="paint13_linear_9:409" x1="57.5007" y1="-6.32214" x2="28.7171" y2="-28.8221" gradientUnits="userSpaceOnUse">
<stop stop-color="#AFDC00" stop-opacity="0"/>
<stop offset="0.472" stop-color="#84A600" stop-opacity="0.472"/>
<stop offset="1" stop-color="#586E00"/>
</linearGradient>
<linearGradient id="paint14_linear_9:409" x1="85.8744" y1="-40.157" x2="33.0359" y2="21.7053" gradientUnits="userSpaceOnUse">
<stop offset="0.003" stop-color="#FFE000"/>
<stop offset="0.142" stop-color="#DCDE00"/>
<stop offset="0.274" stop-color="#C3DD00"/>
<stop offset="0.393" stop-color="#B4DC00"/>
<stop offset="0.491" stop-color="#AFDC00"/>
<stop offset="0.556" stop-color="#A1CA00"/>
<stop offset="0.759" stop-color="#7A9900"/>
<stop offset="0.914" stop-color="#617A00"/>
<stop offset="1" stop-color="#586E00"/>
</linearGradient>
<linearGradient id="paint15_linear_9:409" x1="71.6396" y1="-1.91039" x2="34.4279" y2="-31.002" gradientUnits="userSpaceOnUse">
<stop stop-color="#AFDC00" stop-opacity="0"/>
<stop offset="0.472" stop-color="#84A600" stop-opacity="0.472"/>
<stop offset="1" stop-color="#586E00"/>
</linearGradient>
<linearGradient id="paint16_linear_9:409" x1="98.0174" y1="-26.8445" x2="44.6373" y2="23.219" gradientUnits="userSpaceOnUse">
<stop offset="0.003" stop-color="#FFE000"/>
<stop offset="0.142" stop-color="#DCDE00"/>
<stop offset="0.274" stop-color="#C3DD00"/>
<stop offset="0.393" stop-color="#B4DC00"/>
<stop offset="0.491" stop-color="#AFDC00"/>
<stop offset="0.556" stop-color="#A1CA00"/>
<stop offset="0.759" stop-color="#7A9900"/>
<stop offset="0.914" stop-color="#617A00"/>
<stop offset="1" stop-color="#586E00"/>
</linearGradient>
<linearGradient id="paint17_linear_9:409" x1="89.5556" y1="7.19172" x2="36.3217" y2="-34.4247" gradientUnits="userSpaceOnUse">
<stop stop-color="#AFDC00" stop-opacity="0"/>
<stop offset="0.472" stop-color="#84A600" stop-opacity="0.472"/>
<stop offset="1" stop-color="#586E00"/>
</linearGradient>
<linearGradient id="paint18_linear_9:409" x1="95.2418" y1="-6.86972" x2="46.9721" y2="19.5333" gradientUnits="userSpaceOnUse">
<stop offset="0.003" stop-color="#FFE000"/>
<stop offset="0.142" stop-color="#DCDE00"/>
<stop offset="0.274" stop-color="#C3DD00"/>
<stop offset="0.393" stop-color="#B4DC00"/>
<stop offset="0.491" stop-color="#AFDC00"/>
<stop offset="0.556" stop-color="#A1CA00"/>
<stop offset="0.759" stop-color="#7A9900"/>
<stop offset="0.914" stop-color="#617A00"/>
<stop offset="1" stop-color="#586E00"/>
</linearGradient>
<linearGradient id="paint19_linear_9:409" x1="97.948" y1="13.4077" x2="42.2714" y2="-30.1183" gradientUnits="userSpaceOnUse">
<stop stop-color="#AFDC00" stop-opacity="0"/>
<stop offset="0.472" stop-color="#84A600" stop-opacity="0.472"/>
<stop offset="1" stop-color="#586E00"/>
</linearGradient>
<linearGradient id="paint20_linear_9:409" x1="39.5268" y1="52.9304" x2="-2.98777" y2="11.6622" gradientUnits="userSpaceOnUse">
<stop offset="0.003" stop-color="#FFE000"/>
<stop offset="0.142" stop-color="#DCDE00"/>
<stop offset="0.274" stop-color="#C3DD00"/>
<stop offset="0.393" stop-color="#B4DC00"/>
<stop offset="0.491" stop-color="#AFDC00"/>
<stop offset="0.556" stop-color="#A1CA00"/>
<stop offset="0.759" stop-color="#7A9900"/>
<stop offset="0.914" stop-color="#617A00"/>
<stop offset="1" stop-color="#586E00"/>
</linearGradient>
<linearGradient id="paint21_linear_9:409" x1="29.0052" y1="32.2774" x2="13.8429" y2="50.4278" gradientUnits="userSpaceOnUse">
<stop stop-color="#AFDC00" stop-opacity="0"/>
<stop offset="0.472" stop-color="#84A600" stop-opacity="0.472"/>
<stop offset="1" stop-color="#586E00"/>
</linearGradient>
<linearGradient id="paint22_linear_9:409" x1="56.7779" y1="51.8471" x2="11.4987" y2="8.13646" gradientUnits="userSpaceOnUse">
<stop offset="0.003" stop-color="#FFE000"/>
<stop offset="0.142" stop-color="#DCDE00"/>
<stop offset="0.274" stop-color="#C3DD00"/>
<stop offset="0.393" stop-color="#B4DC00"/>
<stop offset="0.491" stop-color="#AFDC00"/>
<stop offset="0.556" stop-color="#A1CA00"/>
<stop offset="0.759" stop-color="#7A9900"/>
<stop offset="0.914" stop-color="#617A00"/>
<stop offset="1" stop-color="#586E00"/>
</linearGradient>
<linearGradient id="paint23_linear_9:409" x1="46.0788" y1="24.0975" x2="18.4921" y2="49.5944" gradientUnits="userSpaceOnUse">
<stop stop-color="#AFDC00" stop-opacity="0"/>
<stop offset="0.472" stop-color="#84A600" stop-opacity="0.472"/>
<stop offset="1" stop-color="#586E00"/>
</linearGradient>
<linearGradient id="paint24_linear_9:409" x1="83.7018" y1="49.4187" x2="33.4058" y2="-9.12823" gradientUnits="userSpaceOnUse">
<stop offset="0.003" stop-color="#FFE000"/>
<stop offset="0.142" stop-color="#DCDE00"/>
<stop offset="0.274" stop-color="#C3DD00"/>
<stop offset="0.393" stop-color="#B4DC00"/>
<stop offset="0.491" stop-color="#AFDC00"/>
<stop offset="0.556" stop-color="#A1CA00"/>
<stop offset="0.759" stop-color="#7A9900"/>
<stop offset="0.914" stop-color="#617A00"/>
<stop offset="1" stop-color="#586E00"/>
</linearGradient>
<linearGradient id="paint25_linear_9:409" x1="70.9815" y1="12.4673" x2="32.8982" y2="42.4192" gradientUnits="userSpaceOnUse">
<stop stop-color="#AFDC00" stop-opacity="0"/>
<stop offset="0.472" stop-color="#84A600" stop-opacity="0.472"/>
<stop offset="1" stop-color="#586E00"/>
</linearGradient>
<linearGradient id="paint26_linear_9:409" x1="94.6032" y1="38.8719" x2="43.5031" y2="-15.2001" gradientUnits="userSpaceOnUse">
<stop offset="0.003" stop-color="#FFE000"/>
<stop offset="0.142" stop-color="#DCDE00"/>
<stop offset="0.274" stop-color="#C3DD00"/>
<stop offset="0.393" stop-color="#B4DC00"/>
<stop offset="0.491" stop-color="#AFDC00"/>
<stop offset="0.556" stop-color="#A1CA00"/>
<stop offset="0.759" stop-color="#7A9900"/>
<stop offset="0.914" stop-color="#617A00"/>
<stop offset="1" stop-color="#586E00"/>
</linearGradient>
<linearGradient id="paint27_linear_9:409" x1="88.8372" y1="3.30989" x2="29.6399" y2="44.0909" gradientUnits="userSpaceOnUse">
<stop stop-color="#AFDC00" stop-opacity="0"/>
<stop offset="0.472" stop-color="#84A600" stop-opacity="0.472"/>
<stop offset="1" stop-color="#586E00"/>
</linearGradient>
<linearGradient id="paint28_linear_9:409" x1="57.0297" y1="42.3108" x2="26.4336" y2="-11.989" gradientUnits="userSpaceOnUse">
<stop offset="0.003" stop-color="#FFE000"/>
<stop offset="0.142" stop-color="#DCDE00"/>
<stop offset="0.274" stop-color="#C3DD00"/>
<stop offset="0.393" stop-color="#B4DC00"/>
<stop offset="0.491" stop-color="#AFDC00"/>
<stop offset="0.556" stop-color="#A1CA00"/>
<stop offset="0.759" stop-color="#7A9900"/>
<stop offset="0.914" stop-color="#617A00"/>
<stop offset="1" stop-color="#586E00"/>
</linearGradient>
<linearGradient id="paint29_linear_9:409" x1="74.4039" y1="24.3096" x2="-15.6245" y2="33.9251" gradientUnits="userSpaceOnUse">
<stop stop-color="#AFDC00" stop-opacity="0"/>
<stop offset="0.472" stop-color="#84A600" stop-opacity="0.472"/>
<stop offset="1" stop-color="#586E00"/>
</linearGradient>
<linearGradient id="paint30_linear_9:409" x1="93.4337" y1="15.9183" x2="-34.4265" y2="24.1955" gradientUnits="userSpaceOnUse">
<stop offset="0.003" stop-color="#FFE000"/>
<stop offset="0.142" stop-color="#DCDE00"/>
<stop offset="0.274" stop-color="#C3DD00"/>
<stop offset="0.393" stop-color="#B4DC00"/>
<stop offset="0.491" stop-color="#AFDC00"/>
<stop offset="0.715" stop-color="#AEDA00"/>
<stop offset="0.796" stop-color="#A8D300"/>
<stop offset="0.854" stop-color="#9FC800"/>
<stop offset="0.901" stop-color="#91B700"/>
<stop offset="0.941" stop-color="#80A100"/>
<stop offset="0.975" stop-color="#6B8600"/>
<stop offset="1" stop-color="#586E00"/>
</linearGradient>
<linearGradient id="paint31_linear_9:409" x1="36.2681" y1="49.4953" x2="-16.0797" y2="-15.3845" gradientUnits="userSpaceOnUse">
<stop stop-color="#AFDC00" stop-opacity="0"/>
<stop offset="0.472" stop-color="#84A600" stop-opacity="0.472"/>
<stop offset="1" stop-color="#586E00"/>
</linearGradient>
<linearGradient id="paint32_linear_9:409" x1="84.2351" y1="67.6378" x2="22.3729" y2="50.9765" gradientUnits="userSpaceOnUse">
<stop offset="0.003" stop-color="#FFE000"/>
<stop offset="0.142" stop-color="#DCDE00"/>
<stop offset="0.274" stop-color="#C3DD00"/>
<stop offset="0.393" stop-color="#B4DC00"/>
<stop offset="0.491" stop-color="#AFDC00"/>
<stop offset="0.556" stop-color="#A1CA00"/>
<stop offset="0.759" stop-color="#7A9900"/>
<stop offset="0.914" stop-color="#617A00"/>
<stop offset="1" stop-color="#586E00"/>
</linearGradient>
<linearGradient id="paint33_linear_9:409" x1="62.9488" y1="46.4802" x2="41.4964" y2="94.906" gradientUnits="userSpaceOnUse">
<stop stop-color="#AFDC00" stop-opacity="0"/>
<stop offset="0.472" stop-color="#84A600" stop-opacity="0.472"/>
<stop offset="1" stop-color="#586E00"/>
</linearGradient>
<linearGradient id="paint34_linear_9:409" x1="96.2407" y1="66.7266" x2="27.8611" y2="50.6101" gradientUnits="userSpaceOnUse">
<stop offset="0.003" stop-color="#FFE000"/>
<stop offset="0.142" stop-color="#DCDE00"/>
<stop offset="0.274" stop-color="#C3DD00"/>
<stop offset="0.393" stop-color="#B4DC00"/>
<stop offset="0.491" stop-color="#AFDC00"/>
<stop offset="0.556" stop-color="#A1CA00"/>
<stop offset="0.759" stop-color="#7A9900"/>
<stop offset="0.914" stop-color="#617A00"/>
<stop offset="1" stop-color="#586E00"/>
</linearGradient>
<linearGradient id="paint35_linear_9:409" x1="72.1756" y1="44.2751" x2="50.3468" y2="98.0917" gradientUnits="userSpaceOnUse">
<stop stop-color="#AFDC00" stop-opacity="0"/>
<stop offset="0.472" stop-color="#84A600" stop-opacity="0.472"/>
<stop offset="1" stop-color="#586E00"/>
</linearGradient>
<linearGradient id="paint36_linear_9:409" x1="14.1467" y1="79.381" x2="64.3111" y2="18.2323" gradientUnits="userSpaceOnUse">
<stop stop-color="#586E00"/>
<stop offset="0.025" stop-color="#6B8600"/>
<stop offset="0.059" stop-color="#80A100"/>
<stop offset="0.099" stop-color="#91B700"/>
<stop offset="0.146" stop-color="#9FC800"/>
<stop offset="0.204" stop-color="#A8D300"/>
<stop offset="0.285" stop-color="#AEDA00"/>
<stop offset="0.509" stop-color="#AFDC00"/>
<stop offset="0.607" stop-color="#B4DC00"/>
<stop offset="0.727" stop-color="#C3DD00"/>
<stop offset="0.858" stop-color="#DCDE00"/>
<stop offset="0.998" stop-color="#FFE000"/>
</linearGradient>
<linearGradient id="paint37_linear_9:409" x1="38.5364" y1="38.038" x2="42.9724" y2="82.984" gradientUnits="userSpaceOnUse">
<stop stop-color="#AFDC00" stop-opacity="0"/>
<stop offset="0.472" stop-color="#84A600" stop-opacity="0.472"/>
<stop offset="1" stop-color="#586E00"/>
</linearGradient>
<linearGradient id="paint38_linear_9:409" x1="84.8923" y1="86.7419" x2="12.0266" y2="52.9508" gradientUnits="userSpaceOnUse">
<stop offset="0.003" stop-color="#FFE000"/>
<stop offset="0.142" stop-color="#DCDE00"/>
<stop offset="0.274" stop-color="#C3DD00"/>
<stop offset="0.393" stop-color="#B4DC00"/>
<stop offset="0.491" stop-color="#AFDC00"/>
<stop offset="0.556" stop-color="#A1CA00"/>
<stop offset="0.759" stop-color="#7A9900"/>
<stop offset="0.914" stop-color="#617A00"/>
<stop offset="1" stop-color="#586E00"/>
</linearGradient>
<linearGradient id="paint39_linear_9:409" x1="55.1655" y1="60.6226" x2="38.0944" y2="93.6108" gradientUnits="userSpaceOnUse">
<stop stop-color="#AFDC00" stop-opacity="0"/>
<stop offset="0.472" stop-color="#84A600" stop-opacity="0.472"/>
<stop offset="1" stop-color="#586E00"/>
</linearGradient>
<linearGradient id="paint40_linear_9:409" x1="100.331" y1="75.8196" x2="22.374" y2="56.4864" gradientUnits="userSpaceOnUse">
<stop offset="0.003" stop-color="#FFE000"/>
<stop offset="0.142" stop-color="#DCDE00"/>
<stop offset="0.274" stop-color="#C3DD00"/>
<stop offset="0.393" stop-color="#B4DC00"/>
<stop offset="0.491" stop-color="#AFDC00"/>
<stop offset="0.556" stop-color="#A1CA00"/>
<stop offset="0.759" stop-color="#7A9900"/>
<stop offset="0.914" stop-color="#617A00"/>
<stop offset="1" stop-color="#586E00"/>
</linearGradient>
<linearGradient id="paint41_linear_9:409" x1="66.1835" y1="55.8245" x2="55.6903" y2="91.4575" gradientUnits="userSpaceOnUse">
<stop stop-color="#AFDC00" stop-opacity="0"/>
<stop offset="0.472" stop-color="#84A600" stop-opacity="0.472"/>
<stop offset="1" stop-color="#586E00"/>
</linearGradient>
<linearGradient id="paint42_linear_9:409" x1="112.518" y1="60.825" x2="36.0257" y2="64.1531" gradientUnits="userSpaceOnUse">
<stop offset="0.003" stop-color="#FFE000"/>
<stop offset="0.142" stop-color="#DCDE00"/>
<stop offset="0.274" stop-color="#C3DD00"/>
<stop offset="0.393" stop-color="#B4DC00"/>
<stop offset="0.491" stop-color="#AFDC00"/>
<stop offset="0.556" stop-color="#A1CA00"/>
<stop offset="0.759" stop-color="#7A9900"/>
<stop offset="0.914" stop-color="#617A00"/>
<stop offset="1" stop-color="#586E00"/>
</linearGradient>
<linearGradient id="paint43_linear_9:409" x1="75.9072" y1="55.0187" x2="75.9119" y2="78.9903" gradientUnits="userSpaceOnUse">
<stop stop-color="#AFDC00" stop-opacity="0"/>
<stop offset="0.472" stop-color="#84A600" stop-opacity="0.472"/>
<stop offset="1" stop-color="#586E00"/>
</linearGradient>
<clipPath id="clip0_9:409">
<rect width="130.887" height="130.887" fill="white" transform="translate(29.1208 -68) rotate(31.3628)"/>
</clipPath>
</defs>
</svg>
