<svg width="128" height="270" viewBox="0 0 128 270" fill="none" xmlns="http://www.w3.org/2000/svg">
<g opacity="0.2" clip-path="url(#clip0_21:299)">
<path d="M-17.9541 104.43C-17.9541 104.43 14.7793 122.224 93.0178 86.9242C93.0178 86.9242 22.9944 92.5416 -17.9541 104.43Z" fill="url(#paint0_linear_21:299)"/>
<path d="M-17.9541 104.43C22.9944 92.5416 93.0178 86.9242 93.0178 86.9242C93.0178 86.9242 12.0045 108.638 -17.9541 104.43Z" fill="url(#paint1_linear_21:299)"/>
<path d="M2.95856 93.2428C2.95856 93.2428 28.4211 64.7652 123.827 58.6466C123.827 58.6466 49.9683 84.798 2.95856 93.2428Z" fill="url(#paint2_linear_21:299)"/>
<path d="M2.95856 93.2428C49.9683 84.798 123.827 58.6466 123.827 58.6466C123.827 58.6466 31.6235 76.7917 2.95856 93.2428Z" fill="url(#paint3_linear_21:299)"/>
<path d="M-52.6362 120.507C-52.6362 120.507 -29.925 59.4546 22.3014 24.88C22.301 24.8795 -45.8509 43.9218 -52.6362 120.507Z" fill="url(#paint4_linear_21:299)"/>
<path d="M22.301 24.8792C-39.4844 54.1324 -52.6362 120.506 -52.6362 120.506C-52.6362 120.506 -29.925 59.4544 22.301 24.8792Z" fill="url(#paint5_linear_21:299)"/>
<path d="M-34.6565 109.119C-34.6565 109.119 -8.20634 29.0609 57.9178 34.2207C57.9178 34.2207 -3.41589 46.8162 -34.6565 109.119Z" fill="url(#paint6_linear_21:299)"/>
<path d="M57.9178 34.2207C-11.5322 41.8744 -34.6565 109.119 -34.6565 109.119C-3.41589 46.8162 57.9178 34.2207 57.9178 34.2207Z" fill="url(#paint7_linear_21:299)"/>
<path d="M-15.8495 99.4105C-15.8495 99.4105 3.0864 44.9106 73.8592 51.1182C73.8592 51.1182 11.5994 64.7741 -15.8495 99.4105Z" fill="url(#paint8_linear_21:299)"/>
<path d="M73.8588 51.1183C10.7498 54.4013 -15.8494 99.4107 -15.8494 99.4107C11.599 64.7747 73.8588 51.1183 73.8588 51.1183Z" fill="url(#paint9_linear_21:299)"/>
<path d="M-95.1379 171.257C-95.1379 171.257 -33.6224 199.528 18.0935 183.598C18.094 183.598 -39.2258 227.611 -95.1379 171.257Z" fill="url(#paint10_linear_21:299)"/>
<path d="M18.0937 183.598C18.0937 183.598 -31.0058 214.334 -95.1377 171.257C-95.1382 171.257 -33.6222 199.528 18.0937 183.598Z" fill="url(#paint11_linear_21:299)"/>
<path d="M-82.5519 154.89C-82.5519 154.89 -23.4702 211.693 40.408 164.174C40.4075 164.174 -13.1145 187.004 -82.5519 154.89Z" fill="url(#paint12_linear_21:299)"/>
<path d="M40.4064 164.174C-16.6911 198.366 -82.5535 154.891 -82.5535 154.891C-13.1156 187.005 40.4064 164.174 40.4064 164.174Z" fill="url(#paint13_linear_21:299)"/>
<path d="M-50.9168 125.345C-50.9168 125.345 7.34082 146.512 65.8744 126.528C65.8739 126.528 8.07868 169.526 -50.9168 125.345Z" fill="url(#paint14_linear_21:299)"/>
<path d="M65.874 126.528C4.93068 157.73 -50.9168 125.345 -50.9168 125.345C-50.9168 125.345 7.34036 146.512 65.874 126.528Z" fill="url(#paint15_linear_21:299)"/>
<path d="M-38.0008 115.483C-38.0008 115.483 38.8749 151.61 83.4628 97.5673C83.4627 97.5677 29.6085 135.473 -38.0008 115.483Z" fill="url(#paint16_linear_21:299)"/>
<path d="M83.4615 97.5688C27.2322 145.136 -38.0021 115.485 -38.0021 115.485C29.6074 135.473 83.4615 97.5688 83.4615 97.5688Z" fill="url(#paint17_linear_21:299)"/>
<path d="M-67.2741 139.12C-67.2741 139.12 -29.2501 184.805 53.3023 150.816C53.3023 150.816 -24.7456 162.07 -67.2741 139.12Z" fill="url(#paint18_linear_21:299)"/>
<path d="M53.3025 150.816C-22.8138 172.523 -67.2744 139.12 -67.2744 139.12C-24.7454 162.07 53.3025 150.816 53.3025 150.816Z" fill="url(#paint19_linear_21:299)"/>
<path d="M2.95793 93.243C2.95793 93.243 -83.5299 110.117 -141.133 233.789C-141.133 233.789 -128.002 222.568 -112.418 196.224C-85.8482 151.313 -45.7481 113.984 2.95793 93.243Z" fill="url(#paint20_linear_21:299)"/>
<path d="M2.95793 93.243C-89.5428 125.182 -140.225 231.866 -141.12 233.761C-141.124 233.771 -141.129 233.78 -141.133 233.789C-141.133 233.789 -128.002 222.567 -112.418 196.223C-85.8482 151.313 -45.7481 113.984 2.95793 93.243Z" fill="url(#paint21_linear_21:299)"/>
<path d="M-8.99472 223.837C-8.99472 223.837 58.7699 209.23 73.7028 165.578C73.7028 165.578 46.773 205.464 -8.99472 223.837Z" fill="url(#paint22_linear_21:299)"/>
<path d="M73.7028 165.578C48.1825 210.972 -8.99472 223.837 -8.99472 223.837C46.773 205.464 73.7028 165.578 73.7028 165.578Z" fill="url(#paint23_linear_21:299)"/>
<path d="M2.89832 219.867C2.89832 219.867 76.6621 201.509 91.5151 153.149C91.515 153.15 63.3832 197.797 2.89832 219.867Z" fill="url(#paint24_linear_21:299)"/>
<path d="M91.5153 153.15C65.118 203.785 2.89851 219.867 2.89851 219.867C63.3835 197.797 91.5153 153.15 91.5153 153.15Z" fill="url(#paint25_linear_21:299)"/>
<path d="M106.435 143.743C103.237 147.991 99.9863 152.195 96.5112 156.209C95.645 157.215 94.798 158.235 93.9219 159.231L91.2535 162.182L89.919 163.656L88.5422 165.091L85.7907 167.96C82.0309 171.693 78.2269 175.381 74.2019 178.817C72.2347 180.584 70.1518 182.219 68.1245 183.913L64.9979 186.35L63.4334 187.565L61.8354 188.735C53.3677 195.051 44.391 200.651 35.0653 205.554C30.4083 208.02 25.6439 210.273 20.8243 212.388C16.0018 214.5 11.0824 216.384 6.12149 218.135C-3.81757 221.598 -14.0173 224.272 -24.3303 226.287C-34.6458 228.297 -45.0401 229.843 -55.4991 230.963C-65.9586 232.075 -76.4874 232.721 -87.0522 232.862C-92.3336 232.921 -97.626 232.895 -102.922 232.711C-108.218 232.553 -113.525 232.251 -118.819 231.766L-118.947 232.4C-113.771 233.858 -108.494 234.816 -103.193 235.654C-100.54 236.049 -97.8773 236.384 -95.2097 236.694C-92.5412 236.992 -89.8652 237.214 -87.1859 237.411C-76.4671 238.172 -65.6755 238.178 -54.926 237.409C-44.1766 236.64 -33.4749 235.021 -22.974 232.549C-17.7274 231.295 -12.5276 229.857 -7.37762 228.269C-2.22461 226.692 2.87754 224.95 7.89809 222.998C12.9253 221.067 17.9016 219.004 22.7726 216.71C27.6405 214.413 32.4425 211.978 37.1263 209.332C46.475 204.01 55.4241 198.001 63.8089 191.299L65.3844 190.048L66.9244 188.753L69.9986 186.159C71.9889 184.361 74.0316 182.625 75.9546 180.757C79.8921 177.122 83.5927 173.245 87.2373 169.333L89.9001 166.332L91.2304 164.832L92.517 163.294L95.0872 160.22C95.9294 159.183 96.7455 158.124 97.5722 157.077C100.881 152.884 103.953 148.514 106.963 144.116L106.435 143.743Z" fill="url(#paint26_linear_21:299)"/>
<path d="M-118.818 231.766C-113.525 232.251 -108.217 232.552 -102.921 232.711C-97.6255 232.895 -92.3332 232.921 -87.0513 232.862C-76.487 232.721 -65.9573 232.075 -55.4982 230.963C-45.0393 229.844 -34.645 228.297 -24.3294 226.287C-14.0165 224.272 -3.81672 221.598 6.12234 218.135C11.0832 216.384 16.0021 214.501 20.8252 212.388C25.6448 210.272 30.4092 208.02 35.0661 205.555C44.3918 200.651 53.3684 195.052 61.8361 188.736L63.4342 187.565L64.9987 186.35L68.1253 183.913C70.1526 182.219 72.235 180.585 74.2027 178.817C78.2282 175.381 82.0313 171.693 85.7916 167.96L88.543 165.091L89.9198 163.656L91.2543 162.182L93.9228 159.231C94.7993 158.236 95.6463 157.215 96.5121 156.209C99.9876 152.195 103.237 147.99 106.436 143.743C106.435 143.743 39.8801 256.592 -118.818 231.766Z" fill="url(#paint27_linear_21:299)"/>
<path d="M-26.6507 233.618C-26.6507 233.618 37.9611 231.055 84.4422 198.757C84.4428 198.757 48.9468 247.411 -26.6507 233.618Z" fill="url(#paint28_linear_21:299)"/>
<path d="M84.4423 198.757C40.6939 239.874 -26.6507 233.617 -26.6507 233.617C-26.6507 233.617 37.9611 231.055 84.4423 198.757Z" fill="url(#paint29_linear_21:299)"/>
<path d="M-3.74009 227.038C-3.74009 227.038 59.2079 212.245 98.7049 171.703C98.7054 171.704 73.1006 226.216 -3.74009 227.038Z" fill="url(#paint30_linear_21:299)"/>
<path d="M98.7052 171.704C63.5666 220.384 -3.73985 227.038 -3.73985 227.038C-3.73985 227.038 59.2077 212.245 98.7052 171.704Z" fill="url(#paint31_linear_21:299)"/>
<path d="M23.4939 216.161C23.4939 216.161 78.551 187.376 107.909 148.956C107.909 148.956 93.5627 192.246 23.4939 216.161Z" fill="url(#paint32_linear_21:299)"/>
<path d="M107.909 148.956C83.8841 191.35 23.4939 216.161 23.4939 216.161C23.4939 216.161 78.5516 187.375 107.909 148.956Z" fill="url(#paint33_linear_21:299)"/>
</g>
<defs>
<linearGradient id="paint0_linear_21:299" x1="78.9477" y1="96.3097" x2="-21.5325" y2="100.448" gradientUnits="userSpaceOnUse">
<stop offset="0.003" stop-color="#FFE000"/>
<stop offset="0.142" stop-color="#DCDE00"/>
<stop offset="0.274" stop-color="#C3DD00"/>
<stop offset="0.393" stop-color="#B4DC00"/>
<stop offset="0.491" stop-color="#AFDC00"/>
<stop offset="0.715" stop-color="#AEDA00"/>
<stop offset="0.796" stop-color="#A8D300"/>
<stop offset="0.854" stop-color="#9FC800"/>
<stop offset="0.901" stop-color="#91B700"/>
<stop offset="0.941" stop-color="#80A100"/>
<stop offset="0.975" stop-color="#6B8600"/>
<stop offset="1" stop-color="#586E00"/>
</linearGradient>
<linearGradient id="paint1_linear_21:299" x1="36.9744" y1="82.2859" x2="38.9118" y2="114.372" gradientUnits="userSpaceOnUse">
<stop stop-color="#AFDC00" stop-opacity="0"/>
<stop offset="0.472" stop-color="#84A600" stop-opacity="0.472"/>
<stop offset="1" stop-color="#586E00"/>
</linearGradient>
<linearGradient id="paint2_linear_21:299" x1="105.104" y1="55.9171" x2="1.69589" y2="100.004" gradientUnits="userSpaceOnUse">
<stop offset="0.003" stop-color="#FFE000"/>
<stop offset="0.142" stop-color="#DCDE00"/>
<stop offset="0.274" stop-color="#C3DD00"/>
<stop offset="0.393" stop-color="#B4DC00"/>
<stop offset="0.491" stop-color="#AFDC00"/>
<stop offset="0.715" stop-color="#AEDA00"/>
<stop offset="0.796" stop-color="#A8D300"/>
<stop offset="0.854" stop-color="#9FC800"/>
<stop offset="0.901" stop-color="#91B700"/>
<stop offset="0.941" stop-color="#80A100"/>
<stop offset="0.975" stop-color="#6B8600"/>
<stop offset="1" stop-color="#586E00"/>
</linearGradient>
<linearGradient id="paint3_linear_21:299" x1="70.6188" y1="92.9053" x2="53.8357" y2="53.5447" gradientUnits="userSpaceOnUse">
<stop stop-color="#AFDC00" stop-opacity="0"/>
<stop offset="0.472" stop-color="#84A600" stop-opacity="0.472"/>
<stop offset="1" stop-color="#586E00"/>
</linearGradient>
<linearGradient id="paint4_linear_21:299" x1="3.43138" y1="2.93248" x2="-37.6738" y2="148.177" gradientUnits="userSpaceOnUse">
<stop offset="0.003" stop-color="#FFE000"/>
<stop offset="0.142" stop-color="#DCDE00"/>
<stop offset="0.274" stop-color="#C3DD00"/>
<stop offset="0.393" stop-color="#B4DC00"/>
<stop offset="0.491" stop-color="#AFDC00"/>
<stop offset="0.556" stop-color="#A1CA00"/>
<stop offset="0.759" stop-color="#7A9900"/>
<stop offset="0.914" stop-color="#617A00"/>
<stop offset="1" stop-color="#586E00"/>
</linearGradient>
<linearGradient id="paint5_linear_21:299" x1="9.08916" y1="78.4392" x2="-76.1916" y2="58.2511" gradientUnits="userSpaceOnUse">
<stop stop-color="#AFDC00" stop-opacity="0"/>
<stop offset="0.472" stop-color="#84A600" stop-opacity="0.472"/>
<stop offset="1" stop-color="#586E00"/>
</linearGradient>
<linearGradient id="paint6_linear_21:299" x1="34.2216" y1="15.9584" x2="-16.9442" y2="141.734" gradientUnits="userSpaceOnUse">
<stop offset="0.003" stop-color="#FFE000"/>
<stop offset="0.142" stop-color="#DCDE00"/>
<stop offset="0.274" stop-color="#C3DD00"/>
<stop offset="0.393" stop-color="#B4DC00"/>
<stop offset="0.491" stop-color="#AFDC00"/>
<stop offset="0.556" stop-color="#A1CA00"/>
<stop offset="0.759" stop-color="#7A9900"/>
<stop offset="0.914" stop-color="#617A00"/>
<stop offset="1" stop-color="#586E00"/>
</linearGradient>
<linearGradient id="paint7_linear_21:299" x1="46.3463" y1="79.8921" x2="-75.6529" y2="51.0137" gradientUnits="userSpaceOnUse">
<stop stop-color="#AFDC00" stop-opacity="0"/>
<stop offset="0.472" stop-color="#84A600" stop-opacity="0.472"/>
<stop offset="1" stop-color="#586E00"/>
</linearGradient>
<linearGradient id="paint8_linear_21:299" x1="45.0294" y1="51.7808" x2="-15.8662" y2="133.711" gradientUnits="userSpaceOnUse">
<stop offset="0.003" stop-color="#FFE000"/>
<stop offset="0.142" stop-color="#DCDE00"/>
<stop offset="0.274" stop-color="#C3DD00"/>
<stop offset="0.393" stop-color="#B4DC00"/>
<stop offset="0.491" stop-color="#AFDC00"/>
<stop offset="0.556" stop-color="#A1CA00"/>
<stop offset="0.759" stop-color="#7A9900"/>
<stop offset="0.914" stop-color="#617A00"/>
<stop offset="1" stop-color="#586E00"/>
</linearGradient>
<linearGradient id="paint9_linear_21:299" x1="65.3121" y1="83.8632" x2="-62.285" y2="53.6597" gradientUnits="userSpaceOnUse">
<stop stop-color="#AFDC00" stop-opacity="0"/>
<stop offset="0.472" stop-color="#84A600" stop-opacity="0.472"/>
<stop offset="1" stop-color="#586E00"/>
</linearGradient>
<linearGradient id="paint10_linear_21:299" x1="-2.52345" y1="195.779" x2="-106.184" y2="159.177" gradientUnits="userSpaceOnUse">
<stop offset="0.003" stop-color="#FFE000"/>
<stop offset="0.142" stop-color="#DCDE00"/>
<stop offset="0.274" stop-color="#C3DD00"/>
<stop offset="0.393" stop-color="#B4DC00"/>
<stop offset="0.491" stop-color="#AFDC00"/>
<stop offset="0.556" stop-color="#A1CA00"/>
<stop offset="0.759" stop-color="#7A9900"/>
<stop offset="0.914" stop-color="#617A00"/>
<stop offset="1" stop-color="#586E00"/>
</linearGradient>
<linearGradient id="paint11_linear_21:299" x1="-36.2716" y1="169.122" x2="-47.758" y2="211.473" gradientUnits="userSpaceOnUse">
<stop stop-color="#AFDC00" stop-opacity="0"/>
<stop offset="0.472" stop-color="#84A600" stop-opacity="0.472"/>
<stop offset="1" stop-color="#586E00"/>
</linearGradient>
<linearGradient id="paint12_linear_21:299" x1="25.7157" y1="180.578" x2="-84.4984" y2="142.002" gradientUnits="userSpaceOnUse">
<stop offset="0.003" stop-color="#FFE000"/>
<stop offset="0.142" stop-color="#DCDE00"/>
<stop offset="0.274" stop-color="#C3DD00"/>
<stop offset="0.393" stop-color="#B4DC00"/>
<stop offset="0.491" stop-color="#AFDC00"/>
<stop offset="0.556" stop-color="#A1CA00"/>
<stop offset="0.759" stop-color="#7A9900"/>
<stop offset="0.914" stop-color="#617A00"/>
<stop offset="1" stop-color="#586E00"/>
</linearGradient>
<linearGradient id="paint13_linear_21:299" x1="-13.8335" y1="142.097" x2="-40.5673" y2="206.464" gradientUnits="userSpaceOnUse">
<stop stop-color="#AFDC00" stop-opacity="0"/>
<stop offset="0.472" stop-color="#84A600" stop-opacity="0.472"/>
<stop offset="1" stop-color="#586E00"/>
</linearGradient>
<linearGradient id="paint14_linear_21:299" x1="69.2176" y1="155.611" x2="-60.9557" y2="95.9155" gradientUnits="userSpaceOnUse">
<stop offset="0.003" stop-color="#FFE000"/>
<stop offset="0.142" stop-color="#DCDE00"/>
<stop offset="0.274" stop-color="#C3DD00"/>
<stop offset="0.393" stop-color="#B4DC00"/>
<stop offset="0.491" stop-color="#AFDC00"/>
<stop offset="0.556" stop-color="#A1CA00"/>
<stop offset="0.759" stop-color="#7A9900"/>
<stop offset="0.914" stop-color="#617A00"/>
<stop offset="1" stop-color="#586E00"/>
</linearGradient>
<linearGradient id="paint15_linear_21:299" x1="19.1268" y1="103.185" x2="-21.8465" y2="183.2" gradientUnits="userSpaceOnUse">
<stop stop-color="#AFDC00" stop-opacity="0"/>
<stop offset="0.472" stop-color="#84A600" stop-opacity="0.472"/>
<stop offset="1" stop-color="#586E00"/>
</linearGradient>
<linearGradient id="paint16_linear_21:299" x1="79.4163" y1="129.38" x2="-48.6428" y2="77.8517" gradientUnits="userSpaceOnUse">
<stop offset="0.003" stop-color="#FFE000"/>
<stop offset="0.142" stop-color="#DCDE00"/>
<stop offset="0.274" stop-color="#C3DD00"/>
<stop offset="0.393" stop-color="#B4DC00"/>
<stop offset="0.491" stop-color="#AFDC00"/>
<stop offset="0.556" stop-color="#A1CA00"/>
<stop offset="0.759" stop-color="#7A9900"/>
<stop offset="0.914" stop-color="#617A00"/>
<stop offset="1" stop-color="#586E00"/>
</linearGradient>
<linearGradient id="paint17_linear_21:299" x1="42.1256" y1="73.9054" x2="-26.0428" y2="188.544" gradientUnits="userSpaceOnUse">
<stop stop-color="#AFDC00" stop-opacity="0"/>
<stop offset="0.472" stop-color="#84A600" stop-opacity="0.472"/>
<stop offset="1" stop-color="#586E00"/>
</linearGradient>
<linearGradient id="paint18_linear_21:299" x1="18.7466" y1="164.308" x2="-74.9265" y2="96.4987" gradientUnits="userSpaceOnUse">
<stop offset="0.003" stop-color="#FFE000"/>
<stop offset="0.142" stop-color="#DCDE00"/>
<stop offset="0.274" stop-color="#C3DD00"/>
<stop offset="0.393" stop-color="#B4DC00"/>
<stop offset="0.491" stop-color="#AFDC00"/>
<stop offset="0.556" stop-color="#A1CA00"/>
<stop offset="0.759" stop-color="#7A9900"/>
<stop offset="0.914" stop-color="#617A00"/>
<stop offset="1" stop-color="#586E00"/>
</linearGradient>
<linearGradient id="paint19_linear_21:299" x1="34.077" y1="120.494" x2="-110.225" y2="206.501" gradientUnits="userSpaceOnUse">
<stop stop-color="#AFDC00" stop-opacity="0"/>
<stop offset="0.472" stop-color="#84A600" stop-opacity="0.472"/>
<stop offset="1" stop-color="#586E00"/>
</linearGradient>
<linearGradient id="paint20_linear_21:299" x1="59.649" y1="91.5953" x2="-149.462" y2="204.678" gradientUnits="userSpaceOnUse">
<stop offset="0.003" stop-color="#FFE000"/>
<stop offset="0.142" stop-color="#DCDE00"/>
<stop offset="0.274" stop-color="#C3DD00"/>
<stop offset="0.393" stop-color="#B4DC00"/>
<stop offset="0.491" stop-color="#AFDC00"/>
<stop offset="0.715" stop-color="#AEDA00"/>
<stop offset="0.796" stop-color="#A8D300"/>
<stop offset="0.854" stop-color="#9FC800"/>
<stop offset="0.901" stop-color="#91B700"/>
<stop offset="0.941" stop-color="#80A100"/>
<stop offset="0.975" stop-color="#6B8600"/>
<stop offset="1" stop-color="#586E00"/>
</linearGradient>
<linearGradient id="paint21_linear_21:299" x1="-10.68" y1="192.515" x2="-149.222" y2="123.736" gradientUnits="userSpaceOnUse">
<stop stop-color="#AFDC00" stop-opacity="0"/>
<stop offset="0.472" stop-color="#84A600" stop-opacity="0.472"/>
<stop offset="1" stop-color="#586E00"/>
</linearGradient>
<linearGradient id="paint22_linear_21:299" x1="84.2418" y1="185.908" x2="-32.9542" y2="205.785" gradientUnits="userSpaceOnUse">
<stop offset="0.003" stop-color="#FFE000"/>
<stop offset="0.142" stop-color="#DCDE00"/>
<stop offset="0.274" stop-color="#C3DD00"/>
<stop offset="0.393" stop-color="#B4DC00"/>
<stop offset="0.491" stop-color="#AFDC00"/>
<stop offset="0.556" stop-color="#A1CA00"/>
<stop offset="0.759" stop-color="#7A9900"/>
<stop offset="0.914" stop-color="#617A00"/>
<stop offset="1" stop-color="#586E00"/>
</linearGradient>
<linearGradient id="paint23_linear_21:299" x1="31.9567" y1="166.747" x2="33.3402" y2="265.008" gradientUnits="userSpaceOnUse">
<stop stop-color="#AFDC00" stop-opacity="0"/>
<stop offset="0.472" stop-color="#84A600" stop-opacity="0.472"/>
<stop offset="1" stop-color="#586E00"/>
</linearGradient>
<linearGradient id="paint24_linear_21:299" x1="103.773" y1="175.064" x2="-23.987" y2="200.912" gradientUnits="userSpaceOnUse">
<stop offset="0.003" stop-color="#FFE000"/>
<stop offset="0.142" stop-color="#DCDE00"/>
<stop offset="0.274" stop-color="#C3DD00"/>
<stop offset="0.393" stop-color="#B4DC00"/>
<stop offset="0.491" stop-color="#AFDC00"/>
<stop offset="0.556" stop-color="#A1CA00"/>
<stop offset="0.759" stop-color="#7A9900"/>
<stop offset="0.914" stop-color="#617A00"/>
<stop offset="1" stop-color="#586E00"/>
</linearGradient>
<linearGradient id="paint25_linear_21:299" x1="45.8002" y1="155.876" x2="50.7286" y2="263.517" gradientUnits="userSpaceOnUse">
<stop stop-color="#AFDC00" stop-opacity="0"/>
<stop offset="0.472" stop-color="#84A600" stop-opacity="0.472"/>
<stop offset="1" stop-color="#586E00"/>
</linearGradient>
<linearGradient id="paint26_linear_21:299" x1="-24.7985" y1="260.043" x2="12.3524" y2="118.075" gradientUnits="userSpaceOnUse">
<stop stop-color="#586E00"/>
<stop offset="0.025" stop-color="#6B8600"/>
<stop offset="0.059" stop-color="#80A100"/>
<stop offset="0.099" stop-color="#91B700"/>
<stop offset="0.146" stop-color="#9FC800"/>
<stop offset="0.204" stop-color="#A8D300"/>
<stop offset="0.285" stop-color="#AEDA00"/>
<stop offset="0.509" stop-color="#AFDC00"/>
<stop offset="0.607" stop-color="#B4DC00"/>
<stop offset="0.727" stop-color="#C3DD00"/>
<stop offset="0.858" stop-color="#DCDE00"/>
<stop offset="0.998" stop-color="#FFE000"/>
</linearGradient>
<linearGradient id="paint27_linear_21:299" x1="-15.7395" y1="171.443" x2="26.585" y2="243.768" gradientUnits="userSpaceOnUse">
<stop stop-color="#AFDC00" stop-opacity="0"/>
<stop offset="0.472" stop-color="#84A600" stop-opacity="0.472"/>
<stop offset="1" stop-color="#586E00"/>
</linearGradient>
<linearGradient id="paint28_linear_21:299" x1="100.161" y1="217.601" x2="-48.8634" y2="217.134" gradientUnits="userSpaceOnUse">
<stop offset="0.003" stop-color="#FFE000"/>
<stop offset="0.142" stop-color="#DCDE00"/>
<stop offset="0.274" stop-color="#C3DD00"/>
<stop offset="0.393" stop-color="#B4DC00"/>
<stop offset="0.491" stop-color="#AFDC00"/>
<stop offset="0.556" stop-color="#A1CA00"/>
<stop offset="0.759" stop-color="#7A9900"/>
<stop offset="0.914" stop-color="#617A00"/>
<stop offset="1" stop-color="#586E00"/>
</linearGradient>
<linearGradient id="paint29_linear_21:299" x1="29.8015" y1="196.621" x2="26.6013" y2="265.463" gradientUnits="userSpaceOnUse">
<stop stop-color="#AFDC00" stop-opacity="0"/>
<stop offset="0.472" stop-color="#84A600" stop-opacity="0.472"/>
<stop offset="1" stop-color="#586E00"/>
</linearGradient>
<linearGradient id="paint30_linear_21:299" x1="117.717" y1="187.221" x2="-28.6806" y2="215.072" gradientUnits="userSpaceOnUse">
<stop offset="0.003" stop-color="#FFE000"/>
<stop offset="0.142" stop-color="#DCDE00"/>
<stop offset="0.274" stop-color="#C3DD00"/>
<stop offset="0.393" stop-color="#B4DC00"/>
<stop offset="0.491" stop-color="#AFDC00"/>
<stop offset="0.556" stop-color="#A1CA00"/>
<stop offset="0.759" stop-color="#7A9900"/>
<stop offset="0.914" stop-color="#617A00"/>
<stop offset="1" stop-color="#586E00"/>
</linearGradient>
<linearGradient id="paint31_linear_21:299" x1="44.6539" y1="179.99" x2="54.5924" y2="248.191" gradientUnits="userSpaceOnUse">
<stop stop-color="#AFDC00" stop-opacity="0"/>
<stop offset="0.472" stop-color="#84A600" stop-opacity="0.472"/>
<stop offset="1" stop-color="#586E00"/>
</linearGradient>
<linearGradient id="paint32_linear_21:299" x1="126.635" y1="152.496" x2="0.275942" y2="217.411" gradientUnits="userSpaceOnUse">
<stop offset="0.003" stop-color="#FFE000"/>
<stop offset="0.142" stop-color="#DCDE00"/>
<stop offset="0.274" stop-color="#C3DD00"/>
<stop offset="0.393" stop-color="#B4DC00"/>
<stop offset="0.491" stop-color="#AFDC00"/>
<stop offset="0.556" stop-color="#A1CA00"/>
<stop offset="0.759" stop-color="#7A9900"/>
<stop offset="0.914" stop-color="#617A00"/>
<stop offset="1" stop-color="#586E00"/>
</linearGradient>
<linearGradient id="paint33_linear_21:299" x1="60.4203" y1="171.093" x2="79.0136" y2="211.497" gradientUnits="userSpaceOnUse">
<stop stop-color="#AFDC00" stop-opacity="0"/>
<stop offset="0.472" stop-color="#84A600" stop-opacity="0.472"/>
<stop offset="1" stop-color="#586E00"/>
</linearGradient>
<clipPath id="clip0_21:299">
<rect width="242.848" height="242.848" fill="white" transform="translate(-113.822) rotate(6.66308)"/>
</clipPath>
</defs>
</svg>
