<svg width="26" height="24" viewBox="0 0 26 24" fill="none" xmlns="http://www.w3.org/2000/svg">
<path d="M24.6484 0.496535C24.0702 -0.0736056 23.0709 -0.129668 21.7578 0.334347C20.8548 0.653566 19.9076 1.1885 19.4545 1.63532L15.8154 5.2236L3.83656 3.36838L0.788574 6.37382L10.7479 10.2203L7.55022 13.3734L3.01162 13.6355L0.835352 15.7814L5.76077 18.1249L4.38092 19.4855L5.39064 20.4811L6.76864 19.1223L9.14761 23.9767L11.3234 21.8313L11.5892 17.356L14.8406 14.15L18.7408 23.9684L21.7887 20.963L19.9076 9.1536L23.4935 5.61777C23.9466 5.171 24.4892 4.23707 24.8129 3.34663C25.2835 2.05222 25.2266 1.06658 24.6484 0.496535ZM3.34168 5.84769L4.33267 4.87053L14.5662 6.45543L11.85 9.13368L3.34168 5.84769ZM20.2654 20.4739L19.2744 21.451L15.9426 13.0634L18.6584 10.3856L20.2654 20.4739ZM23.4686 2.87164C23.1958 3.62221 22.7449 4.36475 22.4837 4.62228L10.1955 16.7391L9.92967 21.2143L9.55901 21.5798L7.83802 18.0681L9.07939 16.844L8.06967 15.8484L6.83034 17.0703L3.26709 15.375L3.63732 15.0099L8.17592 14.7478L20.4642 2.63099C20.7254 2.37341 21.4785 1.92894 22.2397 1.65983C23.1037 1.35439 23.5622 1.41674 23.6387 1.49216C23.7151 1.56754 23.7784 2.0195 23.4686 2.87164Z" fill="black"/>
</svg>
