<svg width="70" height="70" viewBox="0 0 70 70" fill="none" xmlns="http://www.w3.org/2000/svg">
<path d="M50.0391 54.1406C49.2844 54.1406 48.6719 54.7531 48.6719 55.5078C48.6719 56.2625 49.2844 56.875 50.0391 56.875C50.7938 56.875 51.4062 56.2625 51.4062 55.5078C51.4062 54.7531 50.7938 54.1406 50.0391 54.1406Z" fill="#FFAF00"/>
<path d="M53.4054 49.7196L46.9071 47.5539L44.5743 42.8881C46.6759 40.749 48.1351 37.9187 48.6272 34.9665L48.9181 33.2227H51.4062C53.6679 33.2227 55.5078 31.3827 55.5078 29.1211V20.5078C55.5078 9.19981 46.308 0 35 0C23.663 0 14.4922 9.17342 14.4922 20.5078V29.1211C14.4922 30.9034 15.6353 32.4231 17.2266 32.9875V34.5898C17.2266 36.8514 19.0665 38.6914 21.3281 38.6914H22.5288C23.1215 39.9789 23.8886 41.1713 24.8221 42.2425C25.0157 42.4651 25.2176 42.6809 25.4245 42.8907L23.0929 47.5539L16.5945 49.7197C9.03875 52.2391 3.55469 60.1933 3.55469 68.6328C3.55469 69.3879 4.16678 70 4.92188 70H65.0781C65.8331 70 66.4453 69.3879 66.4453 68.6328C66.4453 60.1933 60.9614 52.2391 53.4054 49.7196ZM52.7734 29.1211C52.7734 29.875 52.1601 30.4883 51.4062 30.4883H49.3196C49.6672 27.7963 49.8988 24.9316 49.9919 22.1102C49.9946 22.0306 49.9968 21.9532 49.9993 21.875H52.7734V29.1211ZM18.5938 30.4883C17.8399 30.4883 17.2266 29.875 17.2266 29.1211V21.875H20.0017C20.0062 22.0176 20.011 22.1609 20.0163 22.3051C20.0164 22.31 20.0167 22.3148 20.0169 22.3197C20.0169 22.3202 20.0169 22.3206 20.0169 22.321C20.1126 25.0652 20.3412 27.8555 20.6808 30.4881H18.5938V30.4883ZM21.3281 35.957C20.5743 35.957 19.9609 35.3437 19.9609 34.5898V33.2227H21.0818L21.3727 34.9671C21.4282 35.2986 21.4964 35.6289 21.5753 35.957H21.3281ZM19.9633 19.1406H17.2785C17.971 9.9776 25.6179 2.73438 35 2.73438C44.3404 2.73438 52.0209 9.97664 52.7213 19.1406H50.0369C49.9384 11.5901 43.7898 5.46875 36.2238 5.46875H33.7765C26.2106 5.46875 20.0616 11.5901 19.9633 19.1406ZM33.7764 8.20312H36.2236C42.3499 8.20312 47.3082 13.214 47.3047 19.3334C47.3047 19.7637 47.3013 20.1383 47.294 20.4791C47.294 20.4835 47.2939 20.488 47.2939 20.4925L45.5838 20.2482C40.9381 19.5848 36.5516 17.3916 33.2324 14.0723C32.9759 13.816 32.6282 13.6719 32.2656 13.6719C28.5939 13.6719 25.0791 15.3448 22.7557 18.171C23.3283 12.604 28.0346 8.20312 33.7764 8.20312ZM24.4098 35.957C23.7254 33.6803 22.9422 26.981 22.7691 22.6881L24.6092 20.2345C26.2992 17.9819 28.9285 16.5823 31.7253 16.4217C35.4054 19.9239 40.1662 22.2366 45.1972 22.9549L47.2099 23.2426C47.0754 26.098 46.8005 28.9633 46.4066 31.5986C46.4064 31.5994 46.4063 31.6004 46.4062 31.6013C46.2809 32.4486 46.1822 32.9938 45.9301 34.5167C45.2061 38.8596 41.9655 42.7868 37.6878 43.8564C35.9272 44.2959 34.0725 44.2958 32.3129 43.8564C29.6419 43.1886 27.1927 41.3405 25.6121 38.6914H28.3992C28.9636 40.2827 30.4832 41.4258 32.2656 41.4258H35C37.2661 41.4258 39.1016 39.5905 39.1016 37.3242C39.1016 35.0626 37.2616 33.2227 35 33.2227H32.2656C30.4436 33.2227 28.9464 34.3995 28.3969 35.957H24.4098ZM32.1506 46.6233C33.0884 46.8208 34.0445 46.9219 35 46.9219C35.748 46.9219 36.4961 46.8593 37.2358 46.7379L34.8199 49.2927L32.1506 46.6233ZM32.9403 51.2803L28.6039 55.8662C27.4101 53.581 26.3843 51.2028 25.5429 48.7681L27.1713 45.5112L32.9403 51.2803ZM42.5969 45.048L44.4568 48.768C43.6141 51.2068 42.588 53.5858 41.3954 55.8682L36.7541 51.2269L42.5969 45.048ZM30.8984 37.3242C30.8984 36.5694 31.5107 35.957 32.2656 35.957H35C35.7539 35.957 36.3672 36.5704 36.3672 37.3242C36.3672 38.0792 35.7548 38.6914 35 38.6914H32.2656C31.5118 38.6914 30.8984 38.0781 30.8984 37.3242ZM6.34375 67.2656C6.88557 60.4927 11.393 54.3365 17.4593 52.3137L23.2143 50.3958C24.2687 53.3113 25.5749 56.1451 27.1057 58.8368C27.1083 58.8414 27.1108 58.8461 27.1134 58.8506C27.1134 58.8507 27.1135 58.8507 27.1135 58.8509C28.232 60.8181 29.4909 62.7405 30.8558 64.5656L32.5377 67.2656H6.34375ZM35 66.0469L33.1458 63.0701C33.125 63.0368 33.1029 63.0044 33.0794 62.9729C31.9722 61.4961 30.9395 59.9516 29.9988 58.3707L34.8746 53.2145L40.0122 58.3521C39.0653 59.9445 38.029 61.4954 36.9209 62.9727C36.8539 63.0619 36.9489 62.9212 35 66.0469ZM37.4623 67.2656L39.1441 64.5657C40.515 62.7337 41.7829 60.7958 42.9126 58.8055C42.9194 58.7934 42.9259 58.7811 42.9327 58.7691C42.9335 58.7676 42.9343 58.7662 42.9352 58.7647C44.4466 56.0987 45.7391 53.2896 46.7857 50.3958L52.5406 52.3137C58.607 54.3365 63.1144 60.4927 63.6562 67.2656H37.4623Z" fill="#FFAF00"/>
<path d="M59.5473 61.7327C58.6336 59.9038 57.2953 58.2791 55.6769 57.0341C55.0784 56.5735 54.2201 56.6855 53.7597 57.284C53.2993 57.8826 53.4112 58.7409 54.0097 59.2014C55.3022 60.1957 56.3711 61.4936 57.101 62.9547C57.4391 63.6313 58.2608 63.9037 58.9351 63.5668C59.6105 63.2294 59.8846 62.4082 59.5473 61.7327Z" fill="#FFAF00"/>
</svg>
