<svg width="26" height="24" viewBox="0 0 26 24" fill="none" xmlns="http://www.w3.org/2000/svg">
<g clip-path="url(#clip0_27:382)">
<path d="M13.1445 10.9453C13.0778 10.9453 13.0126 10.9517 12.9492 10.9633L9.68586 5.38997C9.58745 5.22178 9.3693 5.16422 9.19883 5.26125C9.02831 5.35832 8.96988 5.57334 9.06833 5.74148L12.3319 11.3153C12.1719 11.4997 12.0749 11.7388 12.0749 11.9999C12.0749 12.4582 12.373 12.849 12.788 12.9942V20.8359C12.788 21.0301 12.9476 21.1875 13.1445 21.1875C13.3415 21.1875 13.5011 21.0301 13.5011 20.8359V12.9942C13.916 12.8491 14.2141 12.4583 14.2141 12C14.2141 11.4185 13.7343 10.9453 13.1445 10.9453ZM13.1445 12.3516C12.9479 12.3516 12.788 12.1939 12.788 12C12.788 11.8061 12.9479 11.6484 13.1445 11.6484C13.3411 11.6484 13.5011 11.8061 13.5011 12C13.5011 12.1939 13.3411 12.3516 13.1445 12.3516Z" fill="black"/>
<path d="M21.7499 3.51469C19.4513 1.24823 16.3952 0 13.1445 0C9.89379 0 6.83763 1.24823 4.53905 3.51469C2.24047 5.78114 0.974609 8.79469 0.974609 12C0.974609 15.2053 2.24051 18.2188 4.53905 20.4853C6.83759 22.7518 9.89379 24 13.1445 24C16.3952 24 19.4513 22.7518 21.7499 20.4853C24.0485 18.2189 25.3143 15.2053 25.3143 12C25.3143 8.79469 24.0484 5.78119 21.7499 3.51469ZM13.1445 23.2969C6.82718 23.2969 1.68769 18.2291 1.68769 12C1.68769 5.77087 6.82718 0.703125 13.1445 0.703125C19.4618 0.703125 24.6013 5.77087 24.6013 12C24.6013 18.2291 19.4618 23.2969 13.1445 23.2969Z" fill="black"/>
<path d="M13.1444 3.51562C13.3413 3.51562 13.5009 3.35823 13.5009 3.16406C13.5009 2.9699 13.3413 2.8125 13.1444 2.8125C12.9475 2.8125 12.7878 2.9699 12.7878 3.16406C12.7878 3.35823 12.9475 3.51562 13.1444 3.51562Z" fill="black"/>
<path d="M8.66391 4.69922C8.86082 4.69922 9.02045 4.54182 9.02045 4.34766C9.02045 4.15349 8.86082 3.99609 8.66391 3.99609C8.467 3.99609 8.30737 4.15349 8.30737 4.34766C8.30737 4.54182 8.467 4.69922 8.66391 4.69922Z" fill="black"/>
<path d="M5.38388 7.93359C5.58079 7.93359 5.74042 7.77619 5.74042 7.58203C5.74042 7.38787 5.58079 7.23047 5.38388 7.23047C5.18697 7.23047 5.02734 7.38787 5.02734 7.58203C5.02734 7.77619 5.18697 7.93359 5.38388 7.93359Z" fill="black"/>
<path d="M4.18344 12.3516C4.38035 12.3516 4.53998 12.1942 4.53998 12C4.53998 11.8058 4.38035 11.6484 4.18344 11.6484C3.98653 11.6484 3.8269 11.8058 3.8269 12C3.8269 12.1942 3.98653 12.3516 4.18344 12.3516Z" fill="black"/>
<path d="M5.38388 16.7695C5.58079 16.7695 5.74042 16.6121 5.74042 16.418C5.74042 16.2238 5.58079 16.0664 5.38388 16.0664C5.18697 16.0664 5.02734 16.2238 5.02734 16.418C5.02734 16.6121 5.18697 16.7695 5.38388 16.7695Z" fill="black"/>
<path d="M8.66391 20.0039C8.86082 20.0039 9.02045 19.8465 9.02045 19.6523C9.02045 19.4582 8.86082 19.3008 8.66391 19.3008C8.467 19.3008 8.30737 19.4582 8.30737 19.6523C8.30737 19.8465 8.467 20.0039 8.66391 20.0039Z" fill="black"/>
<path d="M17.6251 20.0039C17.822 20.0039 17.9816 19.8465 17.9816 19.6523C17.9816 19.4582 17.822 19.3008 17.6251 19.3008C17.4282 19.3008 17.2686 19.4582 17.2686 19.6523C17.2686 19.8465 17.4282 20.0039 17.6251 20.0039Z" fill="black"/>
<path d="M20.9051 16.7695C21.102 16.7695 21.2617 16.6121 21.2617 16.418C21.2617 16.2238 21.102 16.0664 20.9051 16.0664C20.7082 16.0664 20.5486 16.2238 20.5486 16.418C20.5486 16.6121 20.7082 16.7695 20.9051 16.7695Z" fill="black"/>
<path d="M22.1056 12.3516C22.3025 12.3516 22.4621 12.1942 22.4621 12C22.4621 11.8058 22.3025 11.6484 22.1056 11.6484C21.9087 11.6484 21.749 11.8058 21.749 12C21.749 12.1942 21.9087 12.3516 22.1056 12.3516Z" fill="black"/>
<path d="M20.9051 7.93359C21.102 7.93359 21.2617 7.77619 21.2617 7.58203C21.2617 7.38787 21.102 7.23047 20.9051 7.23047C20.7082 7.23047 20.5486 7.38787 20.5486 7.58203C20.5486 7.77619 20.7082 7.93359 20.9051 7.93359Z" fill="black"/>
<path d="M17.6251 4.69922C17.822 4.69922 17.9816 4.54182 17.9816 4.34766C17.9816 4.15349 17.822 3.99609 17.6251 3.99609C17.4282 3.99609 17.2686 4.15349 17.2686 4.34766C17.2686 4.54182 17.4282 4.69922 17.6251 4.69922Z" fill="black"/>
<path d="M20.7415 4.50909C18.7123 2.50819 16.0143 1.40625 13.1446 1.40625C10.5485 1.40625 8.04204 2.33194 6.08711 4.01269C5.9387 4.14033 5.9233 4.36237 6.05265 4.50872C6.18209 4.65511 6.40733 4.67025 6.5557 4.54266C8.3808 2.97356 10.7207 2.10938 13.1446 2.10938C18.6755 2.10938 23.1752 6.54628 23.1752 12C23.1752 17.4537 18.6755 21.8906 13.1446 21.8906C7.61367 21.8906 3.11396 17.4537 3.11396 12C3.11396 9.60998 3.99038 7.3027 5.58168 5.50308C5.71113 5.35673 5.69568 5.13469 5.54726 5.00705C5.39894 4.87945 5.17371 4.89459 5.04421 5.04103C3.33967 6.96867 2.40088 9.44011 2.40088 12C2.40088 14.8297 3.51841 17.49 5.54765 19.4909C7.57688 21.4918 10.2749 22.5938 13.1446 22.5938C16.0143 22.5938 18.7123 21.4918 20.7415 19.4909C22.7708 17.49 23.8883 14.8297 23.8883 12C23.8883 9.17034 22.7708 6.51 20.7415 4.50909Z" fill="black"/>
</g>
<defs>
<clipPath id="clip0_27:382">
<rect width="24.3397" height="24" fill="white" transform="translate(0.974609)"/>
</clipPath>
</defs>
</svg>
